<svg width="518" height="518" viewBox="0 0 518 518" fill="none" xmlns="http://www.w3.org/2000/svg">
<path d="M273.235 24.864V304.346" stroke="#263238" stroke-linecap="round" stroke-linejoin="round"/>
<g opacity="0.3">
<path opacity="0.3" d="M337.011 413.509H84.1542C81.3792 413.509 79.1296 415.759 79.1296 418.534V454.918C79.1296 457.693 81.3792 459.943 84.1542 459.943H337.011C339.786 459.943 342.035 457.693 342.035 454.918V418.534C342.035 415.759 339.786 413.509 337.011 413.509Z" fill="white" stroke="black" stroke-linecap="round" stroke-linejoin="round"/>
<path opacity="0.3" d="M101.404 386.532H319.761C322.009 386.532 324.165 387.425 325.754 389.014C327.343 390.603 328.236 392.759 328.236 395.006V459.984H92.9292V395.006C92.9292 392.759 93.822 390.603 95.4113 389.014C97.0006 387.425 99.1561 386.532 101.404 386.532Z" fill="white" stroke="black" stroke-linecap="round" stroke-linejoin="round"/>
<path opacity="0.3" d="M328.226 429.826H92.9292V459.943H328.226V429.826Z" fill="white" stroke="black" stroke-linecap="round" stroke-linejoin="round"/>
<path opacity="0.3" d="M26.8843 460.129H508.044" stroke="black" stroke-linecap="round" stroke-linejoin="round"/>
</g>
<g opacity="0.3">
<path opacity="0.3" d="M494.41 386.532H380.305V459.943H494.41V386.532Z" fill="white" stroke="black" stroke-linecap="round" stroke-linejoin="round"/>
<path opacity="0.3" d="M434.177 392.913H384.926V417.591H434.177V392.913Z" fill="white" stroke="black" stroke-linecap="round" stroke-linejoin="round"/>
<path opacity="0.3" d="M488.702 392.913H439.45V417.591H488.702V392.913Z" fill="white" stroke="black" stroke-linecap="round" stroke-linejoin="round"/>
<path opacity="0.3" d="M434.177 423.393H384.926V448.07H434.177V423.393Z" fill="white" stroke="black" stroke-linecap="round" stroke-linejoin="round"/>
<path opacity="0.3" d="M488.702 423.393H439.45V448.07H488.702V423.393Z" fill="white" stroke="black" stroke-linecap="round" stroke-linejoin="round"/>
<path opacity="0.3" d="M494.41 380.575H380.305V386.532H494.41V380.575Z" fill="white" stroke="black" stroke-linecap="round" stroke-linejoin="round"/>
<path opacity="0.3" d="M436.311 341.072C435.862 339.886 434.986 338.911 433.856 338.336C432.726 337.762 431.422 337.629 430.199 337.964L426.511 333.82C426.648 333.345 426.643 332.841 426.495 332.369C426.348 331.898 426.065 331.48 425.682 331.168C425.438 330.897 425.141 330.678 424.81 330.525C424.479 330.371 424.12 330.287 423.755 330.277C423.013 330.285 422.304 330.586 421.783 331.113C421.261 331.641 420.968 332.353 420.968 333.095C420.966 333.449 421.029 333.8 421.155 334.131L398.57 354.934C398.227 354.761 397.85 354.663 397.466 354.647C397.082 354.631 396.699 354.697 396.343 354.84C395.758 355.063 395.265 355.475 394.941 356.01C394.617 356.546 394.481 357.174 394.555 357.795C394.629 358.416 394.908 358.995 395.348 359.439C395.788 359.884 396.364 360.169 396.985 360.248L400.31 373.271H393.576C393.012 373.271 392.454 373.382 391.933 373.598C391.412 373.815 390.938 374.131 390.54 374.531C390.141 374.93 389.826 375.404 389.611 375.926C389.396 376.447 389.286 377.006 389.287 377.57V380.865H415.436V377.57C415.436 376.43 414.983 375.336 414.177 374.53C413.37 373.724 412.277 373.271 411.137 373.271H402.476L399.026 359.741C399.39 359.483 399.686 359.141 399.89 358.744C400.094 358.347 400.199 357.908 400.196 357.462C400.197 357.108 400.134 356.757 400.01 356.426L422.553 335.664C422.941 335.852 423.366 335.951 423.797 335.954C424.304 335.951 424.801 335.811 425.237 335.55L428.345 338.948C427.518 339.624 426.925 340.543 426.649 341.575C426.374 342.607 426.431 343.7 426.811 344.698L429.028 350.458L438.57 346.791L436.311 341.072Z" fill="black" stroke="black" stroke-miterlimit="10"/>
</g>
<g opacity="0.3">
<path opacity="0.3" d="M70.9556 397.202C70.9556 397.202 71.5358 394.737 71.5565 394.571C71.743 392.716 71.0282 388.997 69.1012 388.148C68.778 388.018 68.4313 387.957 68.0833 387.97C67.7353 387.982 67.3938 388.067 67.0806 388.219C66.7674 388.372 66.4895 388.588 66.2648 388.854C66.0401 389.12 65.8734 389.43 65.7756 389.764C65.6282 390.505 65.6446 391.269 65.8235 392.002C66.0025 392.736 66.3398 393.422 66.8116 394.011C67.7648 395.348 70.9556 397.202 70.9556 397.202Z" fill="black"/>
<path opacity="0.3" d="M33.7011 397.71C35.2344 398.311 38.8811 398.104 38.8811 398.104C38.8811 398.104 38.0005 395.721 37.928 395.576C37.0578 393.918 34.4056 391.214 32.344 391.566C32.0091 391.64 31.6931 391.783 31.4157 391.984C31.1382 392.186 30.9052 392.442 30.7312 392.738C30.5573 393.033 30.446 393.361 30.4044 393.702C30.3628 394.042 30.3918 394.387 30.4895 394.716C30.7729 395.42 31.2074 396.053 31.7624 396.57C32.3174 397.087 32.9792 397.477 33.7011 397.71Z" fill="black"/>
<path opacity="0.3" d="M35.3483 408.329C36.9127 408.495 40.1657 407.428 40.4247 407.345C41.0375 409.202 41.7677 411.019 42.6107 412.784C43.0976 413.82 43.6467 414.856 44.1647 415.892C43.8539 415.467 43.5638 415.084 43.5224 415.042C42.2481 413.664 38.9743 411.758 37.0681 412.649C36.757 412.806 36.4823 413.026 36.2618 413.296C36.0413 413.565 35.8799 413.878 35.7881 414.214C35.6963 414.55 35.6761 414.902 35.7289 415.246C35.7816 415.59 35.9061 415.92 36.0942 416.213C36.556 416.811 37.1431 417.301 37.8142 417.648C38.4853 417.995 39.2243 418.191 39.9792 418.223C41.6618 418.164 43.3252 417.846 44.9106 417.28C45.1282 417.674 45.325 418.067 45.5426 418.451C46.5786 420.315 47.6146 422.16 48.5366 424.014C48.8681 424.656 49.1686 425.309 49.4794 425.962C49.1996 425.589 48.9614 425.268 48.9199 425.226C47.6456 423.848 44.3719 421.952 42.476 422.833C42.1649 422.99 41.8902 423.21 41.6697 423.48C41.4492 423.749 41.2879 424.062 41.196 424.398C41.1042 424.734 41.084 425.086 41.1368 425.43C41.1895 425.774 41.314 426.104 41.5022 426.397C41.9628 426.994 42.5482 427.483 43.2174 427.83C43.8867 428.177 44.6236 428.374 45.3768 428.407C47.0161 428.356 48.6376 428.052 50.1838 427.505C50.4739 428.189 50.7744 428.862 51.0334 429.577C51.1888 430.044 51.3856 430.468 51.5203 430.945C51.655 431.421 51.8207 431.867 51.9658 432.323C52.204 433.214 52.4734 434.125 52.691 435.006C52.8464 435.607 52.981 436.187 53.1261 436.767C52.7946 436.125 52.0901 434.861 52.0901 434.757C51.0541 433.203 48.0911 430.831 46.0813 431.421C45.7583 431.529 45.4606 431.701 45.2065 431.927C44.9524 432.153 44.7472 432.429 44.6036 432.738C44.46 433.046 44.381 433.381 44.3715 433.721C44.3619 434.061 44.422 434.4 44.548 434.716C44.9142 435.376 45.4201 435.947 46.0303 436.391C46.6405 436.835 47.3403 437.14 48.0808 437.285C49.8076 437.479 51.5536 437.412 53.2608 437.088C53.4887 438.052 53.7062 438.995 53.8927 439.886C54.5558 442.994 54.9805 445.573 55.2602 447.397L56.6796 447.345V447.179C56.3688 445.345 55.8715 442.724 55.1359 439.616C54.908 438.632 54.649 437.544 54.3589 436.508C55.3283 436.085 56.2695 435.601 57.1768 435.058C58.4775 436.102 59.9176 436.96 61.4555 437.606C61.1136 438.539 60.7718 439.44 60.4195 440.29C59.2592 443.232 58.1818 445.635 57.4151 447.303H58.9691C59.684 445.646 60.606 443.429 61.5798 440.787C61.9321 439.844 62.2843 438.818 62.6158 437.772C64.3211 438.11 66.0683 438.184 67.7958 437.99C68.5372 437.847 69.2385 437.544 69.8505 437.102C70.4625 436.66 70.9705 436.09 71.339 435.431C71.487 435.106 71.5635 434.754 71.5634 434.397C71.5632 434.041 71.4863 433.688 71.3379 433.364C71.1895 433.04 70.9731 432.751 70.7034 432.518C70.4337 432.285 70.1169 432.112 69.7746 432.012C67.7648 431.411 64.8122 433.784 63.7554 435.327C63.6933 435.42 63.1235 436.477 62.7816 437.161L63.2064 435.866C63.4964 434.996 63.7554 434.115 64.0352 433.162L64.4081 431.763C64.5324 431.297 64.6153 430.789 64.7293 430.292C64.9572 429.153 65.1333 427.982 65.2887 426.801C66.8644 427.363 68.517 427.681 70.189 427.744C70.939 427.72 71.6748 427.533 72.3456 427.197C73.0164 426.861 73.6061 426.383 74.074 425.796C74.2662 425.505 74.3945 425.177 74.4505 424.833C74.5064 424.489 74.4888 424.136 74.3987 423.8C74.3087 423.463 74.1482 423.149 73.9279 422.879C73.7077 422.609 73.4326 422.388 73.1209 422.232C71.2146 421.331 67.9409 423.268 66.6666 424.594C66.5837 424.677 65.7756 425.754 65.3405 426.366C65.4234 425.651 65.5166 424.936 65.5788 424.221C65.7653 422.149 65.8896 420.015 66.0139 417.902C66.0139 417.249 66.1072 416.607 66.1486 415.964C66.418 416.047 69.6503 417.125 71.225 417C71.9783 416.971 72.7162 416.778 73.3872 416.435C74.0582 416.091 74.6462 415.605 75.11 415.011C75.3002 414.719 75.4265 414.39 75.4809 414.046C75.5352 413.702 75.5163 413.35 75.4254 413.014C75.3345 412.677 75.1735 412.364 74.9532 412.094C74.7328 411.824 74.4579 411.604 74.1465 411.447C72.2506 410.546 68.9665 412.483 67.6922 413.809C67.599 413.913 66.4387 415.467 66.159 415.881C66.2626 414.462 66.3662 413.043 66.5423 411.655C66.7709 409.773 67.117 407.908 67.5783 406.07C67.713 406.122 71.08 407.252 72.6858 407.106C73.4391 407.078 74.177 406.885 74.848 406.541C75.519 406.198 76.1069 405.712 76.5708 405.117C76.78 404.824 76.9225 404.488 76.9884 404.133C77.0543 403.778 77.0419 403.414 76.9521 403.064C76.8623 402.715 76.6972 402.39 76.4685 402.111C76.2398 401.832 75.953 401.606 75.628 401.45C73.7321 400.549 70.448 402.486 69.1737 403.812C69.0908 403.895 68.1999 405.086 67.7958 405.666L67.6819 405.615C68.211 403.778 68.9044 401.992 69.7539 400.279C70.1994 399.326 70.6759 398.446 71.1525 397.596C72.6842 398.339 74.3185 398.849 76.001 399.109C76.7535 399.162 77.5086 399.051 78.2137 398.783C78.9187 398.514 79.5566 398.095 80.0828 397.555C80.304 397.286 80.4659 396.973 80.5582 396.637C80.6504 396.302 80.6707 395.95 80.618 395.606C80.5652 395.262 80.4404 394.933 80.2518 394.64C80.0632 394.348 79.815 394.098 79.5234 393.908C77.7414 392.81 74.2708 394.322 72.8515 395.545C72.7686 395.607 72.0538 396.374 71.5462 396.933C71.7741 396.55 71.9916 396.156 72.2196 395.793C73.0484 394.447 73.8979 393.255 74.6438 392.209C75.0789 391.618 75.483 391.1 75.8663 390.613C77.5629 390.571 79.2431 390.27 80.8494 389.722C81.5414 389.422 82.1594 388.975 82.6605 388.411C83.1615 387.848 83.5334 387.181 83.7502 386.459C83.8218 386.119 83.8209 385.768 83.7477 385.428C83.6746 385.088 83.5307 384.768 83.3255 384.487C83.1203 384.207 82.8583 383.973 82.5567 383.8C82.255 383.628 81.9204 383.52 81.5746 383.486C79.5026 383.33 77.0991 386.273 76.3946 388.013C76.3325 388.158 75.6487 390.624 75.6902 390.613C75.3172 391.08 74.9132 391.577 74.4884 392.136C73.7114 393.172 72.8412 394.333 71.9709 395.669C71.0271 397.104 70.1658 398.591 69.3913 400.124C68.5197 401.835 67.802 403.621 67.2468 405.459C67.2481 405.483 67.2481 405.508 67.2468 405.532C67.2468 404.921 67.1535 403.201 67.1224 403.066C66.822 401.222 65.1437 397.834 63.0717 397.523C62.7252 397.481 62.3737 397.513 62.04 397.615C61.7064 397.718 61.3981 397.889 61.1352 398.119C60.8723 398.349 60.6607 398.631 60.5142 398.948C60.3677 399.265 60.2895 399.609 60.2848 399.958C60.3414 400.711 60.5617 401.442 60.9303 402.1C61.2989 402.759 61.807 403.329 62.419 403.771C63.6311 404.807 66.9256 405.677 67.195 405.749C66.6741 407.638 66.2796 409.558 66.0139 411.499C65.8585 412.628 65.7238 413.768 65.6202 414.908C65.6202 414.379 65.5581 413.872 65.5477 413.872C65.2473 412.027 63.569 408.629 61.4866 408.319C61.1412 408.28 60.7914 408.313 60.4597 408.417C60.128 408.521 59.8217 408.693 59.5603 408.922C59.299 409.152 59.0884 409.433 58.9419 409.748C58.7955 410.063 58.7166 410.406 58.7101 410.753C58.7693 411.507 58.9906 412.238 59.359 412.898C59.7274 413.558 60.234 414.13 60.8443 414.576C62.26 415.433 63.7967 416.072 65.4027 416.472L65.268 417.798C65.0919 419.87 64.9261 422.025 64.6982 424.087C64.6153 424.812 64.5117 425.527 64.4081 426.241C64.4081 425.775 64.4081 425.371 64.4081 425.319C64.0973 423.465 62.419 420.077 60.347 419.766C60.001 419.724 59.65 419.755 59.3169 419.858C58.9838 419.961 58.6761 420.133 58.414 420.362C58.1519 420.592 57.9413 420.875 57.7959 421.192C57.6506 421.508 57.5738 421.852 57.5705 422.201C57.6197 422.949 57.8304 423.676 58.1881 424.335C58.5458 424.993 59.042 425.566 59.6425 426.013C61.0353 426.882 62.5562 427.525 64.1491 427.92C64.0144 428.645 63.8901 429.38 63.7347 430.075C63.6208 430.551 63.5379 431.017 63.3928 431.484C63.2478 431.95 63.1235 432.426 62.9992 432.882C62.7091 433.763 62.419 434.664 62.1289 435.514C61.9217 436.104 61.7145 436.664 61.5073 437.233C61.6006 436.508 61.7456 435.089 61.7352 434.965C61.6593 433.318 61.1597 431.72 60.2848 430.323C60.2825 430.139 60.2652 429.955 60.233 429.774C60.1773 429.43 60.0497 429.102 59.8585 428.811C59.6674 428.52 59.4169 428.273 59.1236 428.085C58.8303 427.897 58.5007 427.773 58.1563 427.722C57.8119 427.67 57.4605 427.692 57.125 427.785C55.1152 428.396 53.9549 431.991 53.9238 433.866C53.9238 433.98 54.0378 435.182 54.1206 435.938C54.0067 435.503 53.8927 435.068 53.7684 434.623C53.5301 433.732 53.2504 432.851 52.9707 431.908L52.5045 430.541C52.3491 430.075 52.1419 429.608 51.9658 429.142C51.5203 428.054 51.023 426.977 50.4946 425.91C52.1229 425.508 53.6808 424.862 55.1152 423.993C55.7259 423.553 56.2332 422.984 56.6018 422.328C56.9704 421.671 57.1914 420.942 57.2494 420.191C57.249 419.842 57.1746 419.497 57.0311 419.179C56.8875 418.861 56.6781 418.577 56.4166 418.346C56.1552 418.115 55.8476 417.942 55.5143 417.839C55.181 417.735 54.8296 417.704 54.4832 417.746C52.4112 418.047 50.7122 421.424 50.4014 423.278C50.4014 423.392 50.3082 424.739 50.2771 425.485C49.9559 424.843 49.6451 424.2 49.2929 423.558C48.2569 421.714 47.2209 419.88 46.1849 418.047L45.2214 416.358C45.5011 416.285 48.7956 415.394 50.0077 414.4C50.6203 413.96 51.1296 413.393 51.5 412.736C51.8704 412.079 52.093 411.349 52.1522 410.598C52.1428 410.253 52.062 409.914 51.915 409.602C51.768 409.29 51.5579 409.012 51.298 408.785C51.0382 408.558 50.7341 408.388 50.405 408.284C50.076 408.181 49.729 408.147 49.3861 408.184C47.3141 408.484 45.6151 411.872 45.3043 413.716C45.3043 413.861 45.1696 415.788 45.1696 416.296C44.4651 415.053 43.7814 413.82 43.0976 412.566C42.24 410.891 41.4959 409.161 40.8702 407.386C40.9945 407.386 44.434 406.443 45.6772 405.418C46.2899 404.978 46.7992 404.41 47.1696 403.754C47.54 403.097 47.7625 402.367 47.8218 401.616C47.8198 401.267 47.7443 400.923 47.6002 400.606C47.4561 400.289 47.2467 400.005 46.9856 399.774C46.7245 399.544 46.4176 399.371 46.0851 399.267C45.7525 399.163 45.4017 399.13 45.0556 399.171C42.9836 399.471 41.2846 402.859 40.9738 404.703C40.9738 404.827 40.8702 406.309 40.8495 407.013H40.7252C40.1363 405.201 39.7132 403.339 39.4612 401.45C39.3058 400.414 39.223 399.378 39.1504 398.446C40.8392 398.227 42.4848 397.752 44.03 397.037C44.7043 396.663 45.2868 396.144 45.7348 395.516C46.1829 394.889 46.4853 394.17 46.62 393.411C46.6564 393.064 46.6194 392.714 46.5114 392.383C46.4034 392.052 46.2268 391.748 45.9931 391.49C45.7595 391.232 45.474 391.026 45.1554 390.885C44.8367 390.745 44.4921 390.674 44.144 390.676C42.072 390.748 40 393.929 39.4716 395.731C39.4716 395.824 39.2748 396.85 39.1608 397.606C39.1608 397.161 39.0986 396.705 39.0883 396.291C39.0365 394.706 39.0883 393.245 39.0883 391.96C39.0883 391.225 39.1712 390.562 39.223 389.94C40.638 388.97 41.8929 387.785 42.9422 386.428C43.3557 385.797 43.6264 385.084 43.7356 384.338C43.8447 383.592 43.7896 382.83 43.5742 382.108C43.4443 381.784 43.2482 381.491 42.9984 381.248C42.7486 381.005 42.4506 380.817 42.1237 380.696C41.7967 380.575 41.4481 380.524 41.1002 380.546C40.7522 380.568 40.4127 380.662 40.1036 380.823C38.2802 381.859 37.9176 385.62 38.2906 387.454C38.2906 387.609 39.1194 390.033 39.1504 390.012C39.0883 390.603 39.0365 391.245 38.9847 391.939C38.9018 393.224 38.8189 394.685 38.8396 396.28C38.8362 398.011 38.9365 399.741 39.1401 401.46C39.3574 403.37 39.7458 405.256 40.3004 407.096C40.2959 407.117 40.2959 407.138 40.3004 407.158C39.9482 406.651 38.9329 405.273 38.8396 405.169C37.5654 403.802 34.2916 401.895 32.3957 402.786C32.0846 402.943 31.81 403.163 31.5895 403.433C31.369 403.703 31.2076 404.016 31.1158 404.352C31.024 404.688 31.0038 405.039 31.0565 405.383C31.1092 405.728 31.2337 406.057 31.4219 406.35C31.8912 406.948 32.4862 407.435 33.1647 407.777C33.8433 408.119 34.5888 408.307 35.3483 408.329Z" fill="black"/>
<path opacity="0.3" d="M33.7011 397.71C35.2344 398.311 38.8811 398.104 38.8811 398.104C38.8811 398.104 38.0005 395.721 37.928 395.576C37.0578 393.918 34.4056 391.214 32.344 391.566C32.0091 391.64 31.6931 391.783 31.4157 391.984C31.1382 392.186 30.9052 392.442 30.7312 392.738C30.5573 393.033 30.446 393.361 30.4044 393.702C30.3628 394.042 30.3918 394.387 30.4895 394.716C30.7729 395.42 31.2074 396.053 31.7624 396.57C32.3174 397.087 32.9792 397.477 33.7011 397.71Z" fill="black"/>
<path opacity="0.3" d="M70.9556 397.202C70.9556 397.202 71.5358 394.737 71.5565 394.571C71.743 392.716 71.0282 388.997 69.1012 388.148C68.778 388.018 68.4313 387.957 68.0833 387.97C67.7353 387.982 67.3938 388.067 67.0806 388.219C66.7674 388.372 66.4895 388.588 66.2648 388.854C66.0401 389.12 65.8734 389.43 65.7756 389.764C65.6282 390.505 65.6446 391.269 65.8235 392.002C66.0025 392.736 66.3398 393.422 66.8116 394.011C67.7648 395.348 70.9556 397.202 70.9556 397.202Z" fill="black"/>
<path opacity="0.3" d="M35.3483 408.329C36.9127 408.495 40.1657 407.428 40.4247 407.345C41.0375 409.202 41.7677 411.019 42.6107 412.784C43.0976 413.82 43.6467 414.856 44.1647 415.892C43.8539 415.467 43.5638 415.084 43.5224 415.042C42.2481 413.664 38.9743 411.758 37.0681 412.649C36.757 412.806 36.4823 413.026 36.2618 413.296C36.0413 413.565 35.8799 413.878 35.7881 414.214C35.6963 414.55 35.6761 414.902 35.7289 415.246C35.7816 415.59 35.9061 415.92 36.0942 416.213C36.556 416.811 37.1431 417.301 37.8142 417.648C38.4853 417.995 39.2243 418.191 39.9792 418.223C41.6618 418.164 43.3252 417.846 44.9106 417.28C45.1282 417.674 45.325 418.067 45.5426 418.451C46.5786 420.315 47.6146 422.16 48.5366 424.014C48.8681 424.656 49.1686 425.309 49.4794 425.962C49.1996 425.589 48.9614 425.268 48.9199 425.226C47.6456 423.848 44.3719 421.952 42.476 422.833C42.1649 422.99 41.8902 423.21 41.6697 423.48C41.4492 423.749 41.2879 424.062 41.196 424.398C41.1042 424.734 41.084 425.086 41.1368 425.43C41.1895 425.774 41.314 426.104 41.5022 426.397C41.9628 426.994 42.5482 427.483 43.2174 427.83C43.8867 428.177 44.6236 428.374 45.3768 428.407C47.0161 428.356 48.6376 428.052 50.1838 427.505C50.4739 428.189 50.7744 428.862 51.0334 429.577C51.1888 430.044 51.3856 430.468 51.5203 430.945C51.655 431.421 51.8207 431.867 51.9658 432.323C52.204 433.214 52.4734 434.125 52.691 435.006C52.8464 435.607 52.981 436.187 53.1261 436.767C52.7946 436.125 52.0901 434.861 52.0901 434.757C51.0541 433.203 48.0911 430.831 46.0813 431.421C45.7583 431.529 45.4606 431.701 45.2065 431.927C44.9524 432.153 44.7472 432.429 44.6036 432.738C44.46 433.046 44.381 433.381 44.3715 433.721C44.3619 434.061 44.422 434.4 44.548 434.716C44.9142 435.376 45.4201 435.947 46.0303 436.391C46.6405 436.835 47.3403 437.14 48.0808 437.285C49.8076 437.479 51.5536 437.412 53.2608 437.088C53.4887 438.052 53.7062 438.995 53.8927 439.886C54.5558 442.994 54.9805 445.573 55.2602 447.397L56.6796 447.345V447.179C56.3688 445.345 55.8715 442.724 55.1359 439.616C54.908 438.632 54.649 437.544 54.3589 436.508C55.3283 436.085 56.2695 435.601 57.1768 435.058C58.4775 436.102 59.9176 436.96 61.4555 437.606C61.1136 438.539 60.7718 439.44 60.4195 440.29C59.2592 443.232 58.1818 445.635 57.4151 447.303H58.9691C59.684 445.646 60.606 443.429 61.5798 440.787C61.9321 439.844 62.2843 438.818 62.6158 437.772C64.3211 438.11 66.0683 438.184 67.7958 437.99C68.5372 437.847 69.2385 437.544 69.8505 437.102C70.4625 436.66 70.9705 436.09 71.339 435.431C71.487 435.106 71.5635 434.754 71.5634 434.397C71.5632 434.041 71.4863 433.688 71.3379 433.364C71.1895 433.04 70.9731 432.751 70.7034 432.518C70.4337 432.285 70.1169 432.112 69.7746 432.012C67.7648 431.411 64.8122 433.784 63.7554 435.327C63.6933 435.42 63.1235 436.477 62.7816 437.161L63.2064 435.866C63.4964 434.996 63.7554 434.115 64.0352 433.162L64.4081 431.763C64.5324 431.297 64.6153 430.789 64.7293 430.292C64.9572 429.153 65.1333 427.982 65.2887 426.801C66.8644 427.363 68.517 427.681 70.189 427.744C70.939 427.72 71.6748 427.533 72.3456 427.197C73.0164 426.861 73.6061 426.383 74.074 425.796C74.2662 425.505 74.3945 425.177 74.4505 424.833C74.5064 424.489 74.4888 424.136 74.3987 423.8C74.3087 423.463 74.1482 423.149 73.9279 422.879C73.7077 422.609 73.4326 422.388 73.1209 422.232C71.2146 421.331 67.9409 423.268 66.6666 424.594C66.5837 424.677 65.7756 425.754 65.3405 426.366C65.4234 425.651 65.5166 424.936 65.5788 424.221C65.7653 422.149 65.8896 420.015 66.0139 417.902C66.0139 417.249 66.1072 416.607 66.1486 415.964C66.418 416.047 69.6503 417.125 71.225 417C71.9783 416.971 72.7162 416.778 73.3872 416.435C74.0582 416.091 74.6462 415.605 75.11 415.011C75.3002 414.719 75.4265 414.39 75.4809 414.046C75.5352 413.702 75.5163 413.35 75.4254 413.014C75.3345 412.677 75.1735 412.364 74.9532 412.094C74.7328 411.824 74.4579 411.604 74.1465 411.447C72.2506 410.546 68.9665 412.483 67.6922 413.809C67.599 413.913 66.4387 415.467 66.159 415.881C66.2626 414.462 66.3662 413.043 66.5423 411.655C66.7709 409.773 67.117 407.908 67.5783 406.07C67.713 406.122 71.08 407.252 72.6858 407.106C73.4391 407.078 74.177 406.885 74.848 406.541C75.519 406.198 76.1069 405.712 76.5708 405.117C76.78 404.824 76.9225 404.488 76.9884 404.133C77.0543 403.778 77.0419 403.414 76.9521 403.064C76.8623 402.715 76.6972 402.39 76.4685 402.111C76.2398 401.832 75.953 401.606 75.628 401.45C73.7321 400.549 70.448 402.486 69.1737 403.812C69.0908 403.895 68.1999 405.086 67.7958 405.666L67.6819 405.615C68.211 403.778 68.9044 401.992 69.7539 400.279C70.1994 399.326 70.6759 398.446 71.1525 397.596C72.6842 398.339 74.3185 398.849 76.001 399.109C76.7535 399.162 77.5086 399.051 78.2137 398.783C78.9187 398.514 79.5566 398.095 80.0828 397.555C80.304 397.286 80.4659 396.973 80.5582 396.637C80.6504 396.302 80.6707 395.95 80.618 395.606C80.5652 395.262 80.4404 394.933 80.2518 394.64C80.0632 394.348 79.815 394.098 79.5234 393.908C77.7414 392.81 74.2708 394.322 72.8515 395.545C72.7686 395.607 72.0538 396.374 71.5462 396.933C71.7741 396.55 71.9916 396.156 72.2196 395.793C73.0484 394.447 73.8979 393.255 74.6438 392.209C75.0789 391.618 75.483 391.1 75.8663 390.613C77.5629 390.571 79.2431 390.27 80.8494 389.722C81.5414 389.422 82.1594 388.975 82.6605 388.411C83.1615 387.848 83.5334 387.181 83.7502 386.459C83.8218 386.119 83.8209 385.768 83.7477 385.428C83.6746 385.088 83.5307 384.768 83.3255 384.487C83.1203 384.207 82.8583 383.973 82.5567 383.8C82.255 383.628 81.9204 383.52 81.5746 383.486C79.5026 383.33 77.0991 386.273 76.3946 388.013C76.3325 388.158 75.6487 390.624 75.6902 390.613C75.3172 391.08 74.9132 391.577 74.4884 392.136C73.7114 393.172 72.8412 394.333 71.9709 395.669C71.0271 397.104 70.1658 398.591 69.3913 400.124C68.5197 401.835 67.802 403.621 67.2468 405.459C67.2481 405.483 67.2481 405.508 67.2468 405.532C67.2468 404.921 67.1535 403.201 67.1224 403.066C66.822 401.222 65.1437 397.834 63.0717 397.523C62.7252 397.481 62.3737 397.513 62.04 397.615C61.7064 397.718 61.3981 397.889 61.1352 398.119C60.8723 398.349 60.6607 398.631 60.5142 398.948C60.3677 399.265 60.2895 399.609 60.2848 399.958C60.3414 400.711 60.5617 401.442 60.9303 402.1C61.2989 402.759 61.807 403.329 62.419 403.771C63.6311 404.807 66.9256 405.677 67.195 405.749C66.6741 407.638 66.2796 409.558 66.0139 411.499C65.8585 412.628 65.7238 413.768 65.6202 414.908C65.6202 414.379 65.5581 413.872 65.5477 413.872C65.2473 412.027 63.569 408.629 61.4866 408.319C61.1412 408.28 60.7914 408.313 60.4597 408.417C60.128 408.521 59.8217 408.693 59.5603 408.922C59.299 409.152 59.0884 409.433 58.9419 409.748C58.7955 410.063 58.7166 410.406 58.7101 410.753C58.7693 411.507 58.9906 412.238 59.359 412.898C59.7274 413.558 60.234 414.13 60.8443 414.576C62.26 415.433 63.7967 416.072 65.4027 416.472L65.268 417.798C65.0919 419.87 64.9261 422.025 64.6982 424.087C64.6153 424.812 64.5117 425.527 64.4081 426.241C64.4081 425.775 64.4081 425.371 64.4081 425.319C64.0973 423.465 62.419 420.077 60.347 419.766C60.001 419.724 59.65 419.755 59.3169 419.858C58.9838 419.961 58.6761 420.133 58.414 420.362C58.1519 420.592 57.9413 420.875 57.7959 421.192C57.6506 421.508 57.5738 421.852 57.5705 422.201C57.6197 422.949 57.8304 423.676 58.1881 424.335C58.5458 424.993 59.042 425.566 59.6425 426.013C61.0353 426.882 62.5562 427.525 64.1491 427.92C64.0144 428.645 63.8901 429.38 63.7347 430.075C63.6208 430.551 63.5379 431.017 63.3928 431.484C63.2478 431.95 63.1235 432.426 62.9992 432.882C62.7091 433.763 62.419 434.664 62.1289 435.514C61.9217 436.104 61.7145 436.664 61.5073 437.233C61.6006 436.508 61.7456 435.089 61.7352 434.965C61.6593 433.318 61.1597 431.72 60.2848 430.323C60.2825 430.139 60.2652 429.955 60.233 429.774C60.1773 429.43 60.0497 429.102 59.8585 428.811C59.6674 428.52 59.4169 428.273 59.1236 428.085C58.8303 427.897 58.5007 427.773 58.1563 427.722C57.8119 427.67 57.4605 427.692 57.125 427.785C55.1152 428.396 53.9549 431.991 53.9238 433.866C53.9238 433.98 54.0378 435.182 54.1206 435.938C54.0067 435.503 53.8927 435.068 53.7684 434.623C53.5301 433.732 53.2504 432.851 52.9707 431.908L52.5045 430.541C52.3491 430.075 52.1419 429.608 51.9658 429.142C51.5203 428.054 51.023 426.977 50.4946 425.91C52.1229 425.508 53.6808 424.862 55.1152 423.993C55.7259 423.553 56.2332 422.984 56.6018 422.328C56.9704 421.671 57.1914 420.942 57.2494 420.191C57.249 419.842 57.1746 419.497 57.0311 419.179C56.8875 418.861 56.6781 418.577 56.4166 418.346C56.1552 418.115 55.8476 417.942 55.5143 417.839C55.181 417.735 54.8296 417.704 54.4832 417.746C52.4112 418.047 50.7122 421.424 50.4014 423.278C50.4014 423.392 50.3082 424.739 50.2771 425.485C49.9559 424.843 49.6451 424.2 49.2929 423.558C48.2569 421.714 47.2209 419.88 46.1849 418.047L45.2214 416.358C45.5011 416.285 48.7956 415.394 50.0077 414.4C50.6203 413.96 51.1296 413.393 51.5 412.736C51.8704 412.079 52.093 411.349 52.1522 410.598C52.1428 410.253 52.062 409.914 51.915 409.602C51.768 409.29 51.5579 409.012 51.298 408.785C51.0382 408.558 50.7341 408.388 50.405 408.284C50.076 408.181 49.729 408.147 49.3861 408.184C47.3141 408.484 45.6151 411.872 45.3043 413.716C45.3043 413.861 45.1696 415.788 45.1696 416.296C44.4651 415.053 43.7814 413.82 43.0976 412.566C42.24 410.891 41.4959 409.161 40.8702 407.386C40.9945 407.386 44.434 406.443 45.6772 405.418C46.2899 404.978 46.7992 404.41 47.1696 403.754C47.54 403.097 47.7625 402.367 47.8218 401.616C47.8198 401.267 47.7443 400.923 47.6002 400.606C47.4561 400.289 47.2467 400.005 46.9856 399.774C46.7245 399.544 46.4176 399.371 46.0851 399.267C45.7525 399.163 45.4017 399.13 45.0556 399.171C42.9836 399.471 41.2846 402.859 40.9738 404.703C40.9738 404.827 40.8702 406.309 40.8495 407.013H40.7252C40.1363 405.201 39.7132 403.339 39.4612 401.45C39.3058 400.414 39.223 399.378 39.1504 398.446C40.8392 398.227 42.4848 397.752 44.03 397.037C44.7043 396.663 45.2868 396.144 45.7348 395.516C46.1829 394.889 46.4853 394.17 46.62 393.411C46.6564 393.064 46.6194 392.714 46.5114 392.383C46.4034 392.052 46.2268 391.748 45.9931 391.49C45.7595 391.232 45.474 391.026 45.1554 390.885C44.8367 390.745 44.4921 390.674 44.144 390.676C42.072 390.748 40 393.929 39.4716 395.731C39.4716 395.824 39.2748 396.85 39.1608 397.606C39.1608 397.161 39.0986 396.705 39.0883 396.291C39.0365 394.706 39.0883 393.245 39.0883 391.96C39.0883 391.225 39.1712 390.562 39.223 389.94C40.638 388.97 41.8929 387.785 42.9422 386.428C43.3557 385.797 43.6264 385.084 43.7356 384.338C43.8447 383.592 43.7896 382.83 43.5742 382.108C43.4443 381.784 43.2482 381.491 42.9984 381.248C42.7486 381.005 42.4506 380.817 42.1237 380.696C41.7967 380.575 41.4481 380.524 41.1002 380.546C40.7522 380.568 40.4127 380.662 40.1036 380.823C38.2802 381.859 37.9176 385.62 38.2906 387.454C38.2906 387.609 39.1194 390.033 39.1504 390.012C39.0883 390.603 39.0365 391.245 38.9847 391.939C38.9018 393.224 38.8189 394.685 38.8396 396.28C38.8362 398.011 38.9365 399.741 39.1401 401.46C39.3574 403.37 39.7458 405.256 40.3004 407.096C40.2959 407.117 40.2959 407.138 40.3004 407.158C39.9482 406.651 38.9329 405.273 38.8396 405.169C37.5654 403.802 34.2916 401.895 32.3957 402.786C32.0846 402.943 31.81 403.163 31.5895 403.433C31.369 403.703 31.2076 404.016 31.1158 404.352C31.024 404.688 31.0038 405.039 31.0565 405.383C31.1092 405.728 31.2337 406.057 31.4219 406.35C31.8912 406.948 32.4862 407.435 33.1647 407.777C33.8433 408.119 34.5888 408.307 35.3483 408.329Z" fill="black"/>
<path opacity="0.3" d="M62.0772 445.469H52.4216V459.942H62.0772V445.469Z" fill="black"/>
</g>
<path d="M457.912 135.54H435.12V146.936H457.912V135.54Z" stroke="#B2B2B2" stroke-linecap="round" stroke-linejoin="round"/>
<path d="M487.303 135.54H464.511V146.936H487.303V135.54Z" stroke="#B2B2B2" stroke-linecap="round" stroke-linejoin="round"/>
<path d="M472.302 149.94H449.51V161.336H472.302V149.94Z" stroke="#B2B2B2" stroke-linecap="round" stroke-linejoin="round"/>
<path d="M472.302 119.938H449.51V131.334H472.302V119.938Z" stroke="#B2B2B2" stroke-linecap="round" stroke-linejoin="round"/>
<path d="M457.912 178.13H435.12V189.526H457.912V178.13Z" stroke="#B2B2B2" stroke-linecap="round" stroke-linejoin="round"/>
<path d="M487.303 178.13H464.511V189.526H487.303V178.13Z" stroke="#B2B2B2" stroke-linecap="round" stroke-linejoin="round"/>
<path d="M487.303 56.9802H464.511V68.3762H487.303V56.9802Z" stroke="#B2B2B2" stroke-linecap="round" stroke-linejoin="round"/>
<path d="M459.331 94.2761H436.539V105.672H459.331V94.2761Z" stroke="#B2B2B2" stroke-linecap="round" stroke-linejoin="round"/>
<path d="M436.156 68.3762H413.364V79.7722H436.156V68.3762Z" stroke="#B2B2B2" stroke-linecap="round" stroke-linejoin="round"/>
<path d="M420.471 50.5776H397.679V61.9736H420.471V50.5776Z" stroke="#B2B2B2" stroke-linecap="round" stroke-linejoin="round"/>
<path d="M472.302 192.53H449.51V203.926H472.302V192.53Z" stroke="#B2B2B2" stroke-linecap="round" stroke-linejoin="round"/>
<path d="M333.478 217.612H310.686V229.008H333.478V217.612Z" stroke="#B2B2B2" stroke-linecap="round" stroke-linejoin="round"/>
<path d="M362.869 217.612H340.077V229.008H362.869V217.612Z" stroke="#B2B2B2" stroke-linecap="round" stroke-linejoin="round"/>
<path d="M390.354 232.012H367.562V243.408H390.354V232.012Z" stroke="#B2B2B2" stroke-linecap="round" stroke-linejoin="round"/>
<path d="M398.705 67.3711H291.676V208.008H398.705V67.3711Z" stroke="#B2B2B2" stroke-linecap="round" stroke-linejoin="round"/>
<path d="M360.963 67.3401H339.01L291.676 114.675V151.039L338.679 104.035L338.327 89.9767L360.963 67.3401ZM398.705 67.3401H397.327L312.261 152.406L329.448 169.583L291.707 207.324V208.008H319.088L364.672 162.424H345.195L331.644 148.873L398.705 81.813V67.3401ZM398.705 96.4931L344.988 150.22L360.248 150.386L398.674 188.811V171.303L364.879 137.519L398.674 103.724L398.705 96.4931ZM371.924 171.645L335.56 208.008H361.637L384.957 184.677L371.924 171.645ZM291.676 67.3401V83.1495L307.454 67.3401H291.676Z" stroke="#B2B2B2" stroke-linecap="round" stroke-linejoin="round"/>
<g opacity="0.3">
<path opacity="0.3" d="M251.748 49.0442H93.24V251.396H251.748V49.0442Z" stroke="black" stroke-linecap="round" stroke-linejoin="round"/>
<path opacity="0.3" d="M245.532 56.98H99.4561V243.46H245.532V56.98Z" stroke="black" stroke-linecap="round" stroke-linejoin="round"/>
<path opacity="0.3" d="M245.532 149.184H99.4561V159.544H245.532V149.184Z" stroke="black" stroke-linecap="round" stroke-linejoin="round"/>
<path opacity="0.3" d="M239.554 66.822L209.23 97.1354" stroke="black" stroke-linecap="round" stroke-linejoin="round"/>
<path opacity="0.3" d="M199.026 117.254L194.385 121.896" stroke="black" stroke-linecap="round" stroke-linejoin="round"/>
<path opacity="0.3" d="M218.513 97.7568L203.978 112.302" stroke="black" stroke-linecap="round" stroke-linejoin="round"/>
<path opacity="0.3" d="M121.979 68.0547L112.385 77.648" stroke="black" stroke-linecap="round" stroke-linejoin="round"/>
<path opacity="0.3" d="M212.017 196.467L206.754 201.72" stroke="black" stroke-linecap="round" stroke-linejoin="round"/>
<path opacity="0.3" d="M232.748 175.737L216.659 191.826" stroke="black" stroke-linecap="round" stroke-linejoin="round"/>
<path opacity="0.3" d="M239.554 167.314L209.23 197.627" stroke="black" stroke-linecap="round" stroke-linejoin="round"/>
<path opacity="0.3" d="M199.026 217.746L194.385 222.388" stroke="black" stroke-linecap="round" stroke-linejoin="round"/>
<path opacity="0.3" d="M218.513 198.249L203.978 212.794" stroke="black" stroke-linecap="round" stroke-linejoin="round"/>
<path opacity="0.3" d="M121.979 168.547L112.385 178.14" stroke="black" stroke-linecap="round" stroke-linejoin="round"/>
<path opacity="0.3" d="M212.017 296.959L206.754 302.211" stroke="black" stroke-linecap="round" stroke-linejoin="round"/>
<path opacity="0.3" d="M232.748 276.229L216.659 292.318" stroke="black" stroke-linecap="round" stroke-linejoin="round"/>
</g>
<path d="M422.004 452.98C422.004 452.98 420.968 440.227 422.004 432.437C423.04 424.646 428.023 421.807 428.376 418.264C428.728 414.721 426.604 411.178 428.738 407.635C430.564 404.915 432.702 402.418 435.11 400.196C435.11 400.196 432.281 405.511 434.405 409.759C436.529 414.006 439.823 418.616 437.586 422.191C435.348 425.765 432.986 429.277 433.69 432.115C434.395 434.954 438.3 434.239 437.586 440.611C436.871 446.982 435.11 449.468 435.11 449.468L435.462 453.012L423.423 452.659" fill="#651FFF"/>
<path d="M422.004 452.98C422.004 452.98 420.968 440.227 422.004 432.437C423.04 424.646 428.023 421.807 428.376 418.264C428.728 414.721 426.604 411.178 428.738 407.635C430.564 404.915 432.702 402.418 435.11 400.196C435.11 400.196 432.281 405.511 434.405 409.759C436.529 414.006 439.823 418.616 437.586 422.191C435.348 425.765 432.986 429.277 433.69 432.115C434.395 434.954 438.3 434.239 437.586 440.611C436.871 446.982 435.11 449.468 435.11 449.468L435.462 453.012L423.423 452.659" stroke="black" stroke-linecap="round" stroke-linejoin="round"/>
<path d="M421.072 452.836C421.072 452.836 423.589 450.194 419.507 446.205C416.866 443.625 414.276 439.792 414.151 435.845C414.089 433.887 414.98 432.333 414.379 430.499C413.727 428.5 411.686 427.236 411.126 425.009C410.09 420.709 412.939 416.721 413.291 415.322C413.644 413.923 413.291 413.861 411.375 410.069C410.228 407.887 409.603 405.469 409.552 403.004C409.898 404.239 410.57 405.358 411.498 406.244C412.426 407.13 413.575 407.75 414.825 408.039C419.28 409.199 421.828 412.059 421.517 417.477C421.207 422.895 420.844 424.252 424.625 425.236C430.551 426.79 429.961 430.862 429.298 435.835C428.873 438.943 428.707 439.761 430.551 442.051C432.053 443.884 434.384 443.574 432.561 446.744C430.551 450.246 433.442 453.198 429.909 454.11C426.376 455.021 421.072 452.836 421.072 452.836Z" fill="#651FFF" stroke="black" stroke-linecap="round" stroke-linejoin="round"/>
<path d="M436.011 453.426C436.011 453.426 433.566 450.712 437.762 446.837C440.466 444.33 443.159 440.569 443.398 436.601C443.511 434.643 442.672 433.058 443.325 431.256C444.04 429.277 446.112 428.065 446.723 425.858C447.915 421.579 445.159 417.497 444.838 416.109C444.516 414.721 444.838 414.659 446.91 410.929C448.117 408.78 448.805 406.378 448.919 403.916C448.54 405.143 447.836 406.245 446.883 407.105C445.929 407.966 444.761 408.553 443.501 408.805C439.015 409.841 436.394 412.628 436.55 418.047C436.705 423.465 437.037 424.843 433.234 425.723C427.267 427.101 427.733 431.193 428.262 436.187C428.593 439.295 428.738 440.134 426.832 442.33C425.278 444.123 422.968 443.75 424.698 446.972C426.604 450.525 423.662 453.395 427.143 454.4C430.624 455.405 436.011 453.426 436.011 453.426Z" fill="#651FFF" stroke="black" stroke-linecap="round" stroke-linejoin="round"/>
<path d="M443.719 450.142V468.272C443.723 468.618 443.705 468.964 443.667 469.308C443.591 470.253 443.389 471.183 443.066 472.074C442.28 474.295 440.825 476.218 438.901 477.578C436.977 478.938 434.679 479.668 432.323 479.668H426.107C423.763 479.653 421.481 478.916 419.571 477.557C417.662 476.198 416.218 474.283 415.436 472.074C415.113 471.183 414.911 470.253 414.835 469.308C414.797 468.964 414.779 468.618 414.783 468.272V450.142H443.719Z" fill="white" stroke="black" stroke-linecap="round" stroke-linejoin="round"/>
<path d="M443.719 463.092H414.742V463.776H443.719V463.092Z" fill="#263238" stroke="black" stroke-linecap="round" stroke-linejoin="round"/>
<path d="M443.667 467.64C443.591 468.585 443.389 469.515 443.066 470.406H415.436C415.113 469.515 414.911 468.585 414.835 467.64H443.667Z" fill="#263238" stroke="black" stroke-linecap="round" stroke-linejoin="round"/>
<path d="M28.0757 176.586L41.1707 302.129" stroke="#263238" stroke-linecap="round" stroke-linejoin="round"/>
<path d="M39.2956 284.361L33.4629 278.228" stroke="#263238" stroke-linecap="round" stroke-linejoin="round"/>
<path d="M35.3898 280.238C35.376 279.213 35.1433 278.204 34.7073 277.276C34.2713 276.349 33.6422 275.526 32.862 274.861C31.2355 273.4 22.6781 269.806 21.8597 272.789C20.9791 276.094 29.7436 282.538 35.3898 280.238Z" fill="#651FFF" stroke="#263238" stroke-linecap="round" stroke-linejoin="round"/>
<path d="M35.3896 280.238L27.2363 275.151" stroke="#263238" stroke-linecap="round" stroke-linejoin="round"/>
<path d="M40.7459 298.202L35.0479 293.468" stroke="#263238" stroke-linecap="round" stroke-linejoin="round"/>
<path d="M36.9749 295.478C36.9673 294.45 36.7385 293.436 36.3041 292.505C35.8697 291.573 35.2398 290.746 34.4574 290.08C32.8309 288.619 24.2631 285.024 23.4551 288.008C22.5641 291.334 31.3287 297.777 36.9749 295.478Z" fill="#651FFF" stroke="#263238" stroke-linecap="round" stroke-linejoin="round"/>
<path d="M36.9749 295.478L28.8215 290.391" stroke="#263238" stroke-linecap="round" stroke-linejoin="round"/>
<path d="M35.338 246.226L29.5779 241.046" stroke="#263238" stroke-linecap="round" stroke-linejoin="round"/>
<path d="M31.5048 243.056C31.4968 242.033 31.2698 241.024 30.8392 240.097C30.4085 239.169 29.7841 238.345 29.0081 237.679C27.3815 236.218 18.8138 232.623 18.0057 235.607C17.0941 238.912 25.9001 245.356 31.5048 243.056Z" fill="#651FFF" stroke="#263238" stroke-linecap="round" stroke-linejoin="round"/>
<path d="M31.5046 243.056L23.3513 237.969" stroke="#263238" stroke-linecap="round" stroke-linejoin="round"/>
<path d="M36.9439 262.429L31.1733 256.286" stroke="#263238" stroke-linecap="round" stroke-linejoin="round"/>
<path d="M33.1519 258.296C33.1381 257.271 32.9054 256.261 32.4694 255.334C32.0334 254.407 31.4043 253.583 30.6241 252.919C28.9976 251.458 20.4402 247.863 19.6218 250.847C18.6479 254.152 27.4539 260.596 33.1519 258.296Z" fill="#651FFF" stroke="#263238" stroke-linecap="round" stroke-linejoin="round"/>
<path d="M33.1001 258.296L24.9468 253.209" stroke="#263238" stroke-linecap="round" stroke-linejoin="round"/>
<path d="M32.7686 222.181L26.998 216.296" stroke="#263238" stroke-linecap="round" stroke-linejoin="round"/>
<path d="M28.9251 218.306C28.9112 217.281 28.6785 216.272 28.2426 215.344C27.8066 214.417 27.1774 213.593 26.3973 212.929C24.7707 211.468 16.2134 207.873 15.3949 210.857C14.504 214.162 23.2789 220.606 28.9251 218.306Z" fill="#651FFF" stroke="#263238" stroke-linecap="round" stroke-linejoin="round"/>
<path d="M28.925 218.306L20.7717 213.219" stroke="#263238" stroke-linecap="round" stroke-linejoin="round"/>
<path d="M29.9921 195.711L24.3977 191.432" stroke="#263238" stroke-linecap="round" stroke-linejoin="round"/>
<path d="M26.3247 193.442C26.3167 192.419 26.0898 191.41 25.6591 190.483C25.2284 189.555 24.604 188.731 23.828 188.065C22.2015 186.615 13.6337 183.009 12.8257 185.993C11.9243 189.308 20.72 195.742 26.3247 193.442Z" fill="#651FFF" stroke="#263238" stroke-linecap="round" stroke-linejoin="round"/>
<path d="M26.3248 193.442L18.1819 188.366" stroke="#263238" stroke-linecap="round" stroke-linejoin="round"/>
<path d="M38.7361 275.908L43.5535 268.044" stroke="#263238" stroke-linecap="round" stroke-linejoin="round"/>
<path d="M42.0822 270.396C41.8837 269.392 41.902 268.356 42.1361 267.359C42.3702 266.362 42.8145 265.427 43.4394 264.615C44.7344 262.864 52.3697 257.571 53.7994 260.347C55.3326 263.382 48.0806 271.505 42.0822 270.396Z" fill="#651FFF" stroke="#263238" stroke-linecap="round" stroke-linejoin="round"/>
<path d="M42.0823 270.406L47.8217 265.03" stroke="#263238" stroke-linecap="round" stroke-linejoin="round"/>
<path d="M34.5505 235.814L39.3679 227.951" stroke="#263238" stroke-linecap="round" stroke-linejoin="round"/>
<path d="M37.8969 230.313C37.6984 229.309 37.7167 228.273 37.9508 227.276C38.1849 226.279 38.6292 225.344 39.2541 224.532C40.5491 222.771 46.5061 218.368 47.9357 221.155C49.4794 224.18 43.8953 231.401 37.8969 230.313Z" fill="#651FFF" stroke="#263238" stroke-linecap="round" stroke-linejoin="round"/>
<path d="M37.897 230.313L45.2422 223.3" stroke="#263238" stroke-linecap="round" stroke-linejoin="round"/>
<path d="M32.7065 218.192L37.5343 210.329" stroke="#263238" stroke-linecap="round" stroke-linejoin="round"/>
<path d="M36.0632 212.691C35.8646 211.686 35.883 210.651 36.1171 209.654C36.3511 208.657 36.7954 207.721 37.4203 206.91C38.7153 205.149 46.3403 199.855 47.7803 202.642C49.3032 205.667 42.0616 213.779 36.0632 212.691Z" fill="#651FFF" stroke="#263238" stroke-linecap="round" stroke-linejoin="round"/>
<path d="M36.0632 212.691L43.3981 205.677" stroke="#263238" stroke-linecap="round" stroke-linejoin="round"/>
<path d="M30.0129 192.354L34.8303 184.501" stroke="#263238" stroke-linecap="round" stroke-linejoin="round"/>
<path d="M33.3591 186.853C33.1607 185.848 33.18 184.811 33.4159 183.814C33.6518 182.817 34.0988 181.882 34.7266 181.072C36.0113 179.321 43.6466 174.027 45.0866 176.804C46.6199 179.839 39.3679 187.951 33.3591 186.853Z" fill="#651FFF" stroke="#263238" stroke-linecap="round" stroke-linejoin="round"/>
<path d="M33.3591 186.853L40.7044 179.839" stroke="#263238" stroke-linecap="round" stroke-linejoin="round"/>
<path d="M27.9721 175.84C27.7736 174.836 27.7919 173.8 28.026 172.803C28.2601 171.806 28.7044 170.871 29.3293 170.06C30.6243 168.298 38.2596 163.004 39.6893 165.791C41.2018 168.868 33.9498 176.928 27.9721 175.84Z" fill="#651FFF" stroke="#263238" stroke-linecap="round" stroke-linejoin="round"/>
<path d="M27.9512 175.84L35.2964 168.827" stroke="#263238" stroke-linecap="round" stroke-linejoin="round"/>
<path d="M28.376 176.12C27.361 176.213 26.3377 176.089 25.3747 175.755C24.4117 175.421 23.5312 174.885 22.792 174.183C21.1758 172.722 16.721 164.569 19.6322 163.45C22.792 162.238 30.0958 170.287 28.376 176.12Z" fill="#651FFF" stroke="#263238" stroke-linecap="round" stroke-linejoin="round"/>
<path d="M28.376 176.141L22.1704 168.112" stroke="#263238" stroke-linecap="round" stroke-linejoin="round"/>
<path d="M49.0132 140.471V301.818" stroke="#263238" stroke-linecap="round" stroke-linejoin="round"/>
<path d="M64.9468 195.037L53.8098 302.439" stroke="#263238" stroke-linecap="round" stroke-linejoin="round"/>
<path d="M53.9859 301.652L50.7639 297.974" stroke="#263238" stroke-linecap="round" stroke-linejoin="round"/>
<path d="M50.764 297.974C50.9687 296.963 50.9534 295.92 50.7192 294.915C50.4851 293.911 50.0374 292.968 49.4068 292.152C48.1118 290.391 40.4765 285.107 39.0468 287.884C37.5135 290.961 44.7655 299.062 50.764 297.974Z" fill="#651FFF" stroke="#263238" stroke-linecap="round" stroke-linejoin="round"/>
<path d="M50.7641 297.974L43.8333 291.323" stroke="#263238" stroke-linecap="round" stroke-linejoin="round"/>
<path d="M57.9124 263.393L53.1365 259.404" stroke="#263238" stroke-linecap="round" stroke-linejoin="round"/>
<path d="M54.6282 260.792C54.8266 259.787 54.8072 258.751 54.5713 257.754C54.3354 256.756 53.8885 255.821 53.2606 255.011C51.976 253.25 44.3303 247.956 42.9006 250.743C41.3777 253.82 48.6297 261.88 54.6282 260.792Z" fill="#651FFF" stroke="#263238" stroke-linecap="round" stroke-linejoin="round"/>
<path d="M54.6283 260.792L47.6975 254.141" stroke="#263238" stroke-linecap="round" stroke-linejoin="round"/>
<path d="M56.3998 281.523L51.572 273.67" stroke="#263238" stroke-linecap="round" stroke-linejoin="round"/>
<path d="M53.0433 276.022C53.2418 275.017 53.2234 273.981 52.9893 272.984C52.7553 271.987 52.311 271.052 51.6861 270.241C50.3911 268.49 42.7558 263.196 41.3261 265.983C39.7928 269.008 47.0448 277.12 53.0433 276.022Z" fill="#651FFF" stroke="#263238" stroke-linecap="round" stroke-linejoin="round"/>
<path d="M53.0431 276.022L46.1123 269.381" stroke="#263238" stroke-linecap="round" stroke-linejoin="round"/>
<path d="M60.3262 238.985L55.7263 233.67" stroke="#263238" stroke-linecap="round" stroke-linejoin="round"/>
<path d="M57.1975 236.032C57.3959 235.027 57.3766 233.991 57.1407 232.993C56.9048 231.996 56.4578 231.061 55.83 230.251C54.535 228.5 46.8997 223.206 45.47 225.993C43.9471 229.018 51.1991 237.13 57.1975 236.032Z" fill="#651FFF" stroke="#263238" stroke-linecap="round" stroke-linejoin="round"/>
<path d="M57.1974 236.032L50.2666 229.381" stroke="#263238" stroke-linecap="round" stroke-linejoin="round"/>
<path d="M62.7506 215.716L58.3062 208.816" stroke="#263238" stroke-linecap="round" stroke-linejoin="round"/>
<path d="M59.7771 211.168C59.9755 210.163 59.9562 209.127 59.7203 208.129C59.4844 207.132 59.0374 206.197 58.4096 205.387C57.1146 203.636 49.4792 198.342 48.0496 201.129C46.5266 204.154 53.7786 212.266 59.7771 211.168Z" fill="#651FFF" stroke="#263238" stroke-linecap="round" stroke-linejoin="round"/>
<path d="M59.7773 211.168L52.8464 204.527" stroke="#263238" stroke-linecap="round" stroke-linejoin="round"/>
<path d="M54.9287 294.431L61.269 287.728" stroke="#263238" stroke-linecap="round" stroke-linejoin="round"/>
<path d="M59.342 289.738C59.3586 288.715 59.5914 287.707 60.0253 286.78C60.4592 285.854 61.0843 285.029 61.8595 284.361C63.486 282.901 72.0538 279.295 72.8618 282.289C73.7528 285.594 64.9882 292.038 59.342 289.738Z" fill="#651FFF" stroke="#263238" stroke-linecap="round" stroke-linejoin="round"/>
<path d="M59.342 289.738L67.9719 284.382" stroke="#263238" stroke-linecap="round" stroke-linejoin="round"/>
<path d="M59.0935 254.328L65.4338 247.625" stroke="#263238" stroke-linecap="round" stroke-linejoin="round"/>
<path d="M63.5068 249.676C63.5174 248.652 63.7476 247.642 64.1819 246.714C64.6162 245.787 65.2445 244.963 66.0243 244.299C67.6508 242.849 76.2082 239.233 77.0266 242.227C77.9072 245.532 69.153 251.935 63.5068 249.676Z" fill="#651FFF" stroke="#263238" stroke-linecap="round" stroke-linejoin="round"/>
<path d="M63.5068 249.635L72.1367 244.279" stroke="#263238" stroke-linecap="round" stroke-linejoin="round"/>
<path d="M60.9272 236.705L67.2572 230.002" stroke="#263238" stroke-linecap="round" stroke-linejoin="round"/>
<path d="M65.3301 232.064C65.3439 231.039 65.5767 230.03 66.0126 229.102C66.4486 228.175 67.0777 227.352 67.8579 226.687C69.4844 225.237 78.0418 221.621 78.8499 224.615C79.7719 227.92 70.9763 234.312 65.3301 232.064Z" fill="#651FFF" stroke="#263238" stroke-linecap="round" stroke-linejoin="round"/>
<path d="M65.3301 232.012L73.96 226.656" stroke="#263238" stroke-linecap="round" stroke-linejoin="round"/>
<path d="M63.5276 209.552L69.9404 204.175" stroke="#263238" stroke-linecap="round" stroke-linejoin="round"/>
<path d="M68.0134 206.164C68.0247 205.14 68.2552 204.13 68.6894 203.203C69.1237 202.275 69.7516 201.452 70.5309 200.787C72.1574 199.337 80.7251 195.732 81.5332 198.715C82.4242 202.02 73.6596 208.485 68.0134 206.164Z" fill="#651FFF" stroke="#263238" stroke-linecap="round" stroke-linejoin="round"/>
<path d="M68.0134 206.174L76.6433 200.829" stroke="#263238" stroke-linecap="round" stroke-linejoin="round"/>
<path d="M64.9883 194.281C64.9988 193.257 65.229 192.247 65.6633 191.32C66.0976 190.392 66.7259 189.568 67.5058 188.904C69.1323 187.454 77.6896 183.849 78.5081 186.832C79.399 190.137 70.6345 196.581 64.9883 194.281Z" fill="#651FFF" stroke="#263238" stroke-linecap="round" stroke-linejoin="round"/>
<path d="M64.9883 194.281L73.6182 188.925" stroke="#263238" stroke-linecap="round" stroke-linejoin="round"/>
<path d="M65.3404 194.665C64.3192 194.542 63.3364 194.201 62.4587 193.664C61.581 193.128 60.829 192.409 60.2537 191.557C58.9794 189.785 56.2962 180.896 59.3731 180.399C62.7297 179.902 68.2205 189.298 65.3404 194.665Z" fill="#651FFF" stroke="#263238" stroke-linecap="round" stroke-linejoin="round"/>
<path d="M65.3405 194.664L60.9167 185.527" stroke="#263238" stroke-linecap="round" stroke-linejoin="round"/>
<path d="M48.7851 284.123L43.543 277.12" stroke="#263238" stroke-linecap="round" stroke-linejoin="round"/>
<path d="M45.2525 279.316C45.3462 278.295 45.2199 277.265 44.8821 276.296C44.5444 275.328 44.003 274.443 43.2944 273.701C41.8337 272.095 33.6907 267.62 32.5718 270.531C31.3493 273.701 39.368 281.025 45.2525 279.316Z" fill="#651FFF" stroke="#263238" stroke-linecap="round" stroke-linejoin="round"/>
<path d="M45.2525 279.316L37.6689 273.411" stroke="#263238" stroke-linecap="round" stroke-linejoin="round"/>
<path d="M48.9716 250.329L43.543 245.273" stroke="#263238" stroke-linecap="round" stroke-linejoin="round"/>
<path d="M45.2525 247.47C45.346 246.45 45.2196 245.421 44.8818 244.455C44.5441 243.488 44.0027 242.605 43.2944 241.865C41.8337 240.249 33.6907 235.773 32.5718 238.695C31.3493 241.865 39.368 249.179 45.2525 247.47Z" fill="#651FFF" stroke="#263238" stroke-linecap="round" stroke-linejoin="round"/>
<path d="M45.2525 247.469L37.6689 241.574" stroke="#263238" stroke-linecap="round" stroke-linejoin="round"/>
<path d="M49.1477 215.208L43.543 207.894" stroke="#263238" stroke-linecap="round" stroke-linejoin="round"/>
<path d="M45.2525 210.09C45.3462 209.069 45.2199 208.039 44.8821 207.071C44.5444 206.102 44.003 205.217 43.2944 204.475C41.8337 202.87 33.6907 198.394 32.5718 201.305C31.3493 204.475 39.368 211.8 45.2525 210.09Z" fill="#651FFF" stroke="#263238" stroke-linecap="round" stroke-linejoin="round"/>
<path d="M45.2525 210.09L37.6689 204.185" stroke="#263238" stroke-linecap="round" stroke-linejoin="round"/>
<path d="M48.7851 187.734L43.543 183.01" stroke="#263238" stroke-linecap="round" stroke-linejoin="round"/>
<path d="M45.2525 185.206C45.3462 184.184 45.2199 183.155 44.8821 182.186C44.5444 181.217 44.003 180.332 43.2944 179.591C41.8337 177.975 33.6907 173.509 32.5718 176.421C31.3493 179.591 39.368 186.905 45.2525 185.206Z" fill="#651FFF" stroke="#263238" stroke-linecap="round" stroke-linejoin="round"/>
<path d="M45.2525 185.206L37.6689 179.301" stroke="#263238" stroke-linecap="round" stroke-linejoin="round"/>
<path d="M49.0857 162.838L43.6467 158.85" stroke="#263238" stroke-linecap="round" stroke-linejoin="round"/>
<path d="M45.2525 160.207C45.346 159.187 45.2196 158.159 44.8818 157.192C44.5441 156.225 44.0027 155.342 43.2944 154.602C41.8337 152.986 33.6907 148.511 32.5718 151.422C31.3493 154.602 39.368 161.916 45.2525 160.207Z" fill="#651FFF" stroke="#263238" stroke-linecap="round" stroke-linejoin="round"/>
<path d="M45.2525 160.207L37.6689 154.312" stroke="#263238" stroke-linecap="round" stroke-linejoin="round"/>
<path d="M50.1113 292.587L54.6387 286.848" stroke="#263238" stroke-linecap="round" stroke-linejoin="round"/>
<path d="M52.9291 289.044C52.8381 288.021 52.9677 286.99 53.309 286.022C53.6504 285.053 54.1956 284.169 54.9079 283.429C56.379 281.813 64.522 277.337 65.6408 280.259C66.8322 283.429 58.7825 290.743 52.9291 289.044Z" fill="#651FFF" stroke="#263238" stroke-linecap="round" stroke-linejoin="round"/>
<path d="M52.9292 289.034L60.9582 282.818" stroke="#263238" stroke-linecap="round" stroke-linejoin="round"/>
<path d="M49.0234 243.522L54.6386 236.198" stroke="#263238" stroke-linecap="round" stroke-linejoin="round"/>
<path d="M52.9293 238.394C52.8398 237.373 52.9701 236.344 53.3114 235.377C53.6527 234.411 54.1971 233.528 54.908 232.789C56.3791 231.173 64.5221 226.698 65.641 229.619C66.8324 232.789 58.7827 240.103 52.9293 238.394Z" fill="#651FFF" stroke="#263238" stroke-linecap="round" stroke-linejoin="round"/>
<path d="M52.9292 238.394L60.9582 232.178" stroke="#263238" stroke-linecap="round" stroke-linejoin="round"/>
<path d="M49.0234 218.524L54.6386 211.209" stroke="#263238" stroke-linecap="round" stroke-linejoin="round"/>
<path d="M52.9292 213.416C52.8367 212.391 52.9655 211.359 53.3069 210.388C53.6483 209.418 54.1943 208.532 54.908 207.791C56.3791 206.174 64.5221 201.709 65.641 204.62C66.8324 207.791 58.7826 215.105 52.9292 213.416Z" fill="#651FFF" stroke="#263238" stroke-linecap="round" stroke-linejoin="round"/>
<path d="M52.9292 213.395L60.9582 207.179" stroke="#263238" stroke-linecap="round" stroke-linejoin="round"/>
<path d="M49.0234 185.486L54.6386 178.171" stroke="#263238" stroke-linecap="round" stroke-linejoin="round"/>
<path d="M52.9292 180.368C52.843 179.345 52.9747 178.316 53.3158 177.348C53.6569 176.38 54.1996 175.495 54.908 174.753C56.3791 173.136 64.5221 168.671 65.641 171.582C66.8324 174.753 58.7826 182.067 52.9292 180.368Z" fill="#651FFF" stroke="#263238" stroke-linecap="round" stroke-linejoin="round"/>
<path d="M52.9292 180.368L60.9582 174.152" stroke="#263238" stroke-linecap="round" stroke-linejoin="round"/>
<path d="M49.2722 156.975L54.7734 152.686" stroke="#263238" stroke-linecap="round" stroke-linejoin="round"/>
<path d="M52.9293 154.364C52.8429 153.346 52.9746 152.322 53.3159 151.359C53.6571 150.396 54.1999 149.517 54.9081 148.78C56.3792 147.164 64.5222 142.699 65.641 145.61C66.8324 148.78 58.7827 156.094 52.9293 154.364Z" fill="#651FFF" stroke="#263238" stroke-linecap="round" stroke-linejoin="round"/>
<path d="M52.9292 154.385L60.9582 148.169" stroke="#263238" stroke-linecap="round" stroke-linejoin="round"/>
<path d="M48.6921 142.875C48.6017 141.854 48.7286 140.826 49.0643 139.859C49.4 138.891 49.9369 138.005 50.6398 137.26C52.1109 135.643 60.2538 131.178 61.3727 134.089C62.5952 137.26 54.5455 144.574 48.6921 142.875Z" fill="#651FFF" stroke="#263238" stroke-linecap="round" stroke-linejoin="round"/>
<path d="M48.6919 142.875L56.7209 136.659" stroke="#263238" stroke-linecap="round" stroke-linejoin="round"/>
<path d="M49.0856 143.217C48.061 143.203 47.0512 142.97 46.1239 142.534C45.1965 142.098 44.3731 141.469 43.7088 140.689C42.2584 139.062 38.6634 130.495 41.6368 129.687C44.9623 128.806 51.3959 137.571 49.0856 143.217Z" fill="#651FFF" stroke="#263238" stroke-linecap="round" stroke-linejoin="round"/>
<path d="M49.0858 143.217L43.74 134.576" stroke="#263238" stroke-linecap="round" stroke-linejoin="round"/>
<path d="M426.635 194.685C426.635 194.685 402.351 206.288 397.627 213.333C395.555 216.389 381.735 271.619 381.735 271.619L372.577 279.254L386.614 304.118H469.981C469.981 304.118 476.083 218.13 474.861 213.882C473.638 209.635 444.651 197.13 441.336 195.597C438.021 194.064 429.391 193.152 426.635 194.685Z" fill="#651FFF" stroke="#263238" stroke-linecap="round" stroke-linejoin="round"/>
<path d="M415.602 257.249L431.1 270.044L418.834 263.123" stroke="#263238" stroke-miterlimit="10"/>
<path d="M409.396 252.121L413.147 255.219" stroke="#263238" stroke-miterlimit="10"/>
<path d="M327.428 290.08C327.428 290.08 324.548 290.515 323.398 292.38C322.248 294.245 320.083 299.58 321.088 300.015C322.092 300.45 322.818 298.865 323.543 297.715C324.268 296.565 325.263 294.835 325.263 294.835L327.573 294.4L327.428 290.08Z" fill="white" stroke="#263238" stroke-linecap="round" stroke-linejoin="round"/>
<path d="M331.458 287.303C331.458 287.303 328.143 287.013 327.314 288.453C326.485 289.893 324.724 299.394 324.869 300.554C325.014 301.714 326.454 302.274 327.604 300.264C328.754 298.254 331.199 289.324 331.199 289.324L331.458 287.303Z" fill="white" stroke="#263238" stroke-linecap="round" stroke-linejoin="round"/>
<path d="M338.223 287.159C338.223 287.159 333.333 284.859 331.313 285.294C329.293 285.729 326.423 300.409 326.848 301.124C327.069 301.326 327.33 301.479 327.614 301.575C327.898 301.67 328.198 301.705 328.497 301.678C328.795 301.651 329.084 301.562 329.346 301.416C329.608 301.271 329.837 301.073 330.018 300.834C330.733 299.684 334.908 292.629 336.068 290.909C336.853 289.698 337.572 288.446 338.223 287.159Z" fill="white" stroke="#263238" stroke-linecap="round" stroke-linejoin="round"/>
<path d="M388.5 294.69C388.5 294.69 386.625 281.927 383.206 276.954C379.787 271.981 377.259 276.26 372.09 278.953C368.982 280.59 350.21 288.464 349.298 288.775C348.386 289.085 340.274 284.413 338.72 285.667C337.166 286.92 331.251 294.379 330.008 298.42C328.764 302.46 331.872 302.781 333.116 301.528C334.359 300.274 338.099 294.369 339.653 293.126C341.207 291.883 344.947 295.923 344.947 295.923C344.947 295.923 339.342 298.72 337.477 299.974C335.612 301.227 338.409 301.839 341.517 301.839C344.638 301.707 347.703 300.968 350.541 299.663L353.649 298.099C353.649 298.099 378.192 298.109 388.5 294.69Z" fill="white" stroke="#263238" stroke-linecap="round" stroke-linejoin="round"/>
<path d="M428.469 114.074C428.469 114.074 404.351 124.434 402.206 131.479C400.062 138.524 404.651 139.415 405.263 143.082C405.874 146.749 389.08 163.802 395.804 174.535C402.528 185.268 439.161 188.003 454.421 185.216C469.681 182.429 479.461 171.748 478.549 159.565C477.638 147.381 470.261 141.549 461.144 127.811C452.028 114.074 434.882 111.94 428.469 114.074Z" fill="#263238" stroke="#263238" stroke-linecap="round" stroke-linejoin="round"/>
<path d="M411.064 158.042C411.064 158.042 407.096 158.353 407.096 161.398C407.096 164.444 411.064 170.867 412.898 170.557C414.731 170.246 411.064 158.042 411.064 158.042Z" fill="white" stroke="#263238" stroke-linecap="round" stroke-linejoin="round"/>
<path d="M423.89 131.479C423.89 131.479 409.842 141.248 410.153 146.749C410.463 152.251 409.541 165.978 414.12 175.146C417.356 181.4 421.029 187.416 425.112 193.152C425.112 193.152 422.367 216.98 422.667 223.082C422.968 229.184 427.847 226.138 433.359 219.414C438.87 212.691 444.351 197.741 444.351 197.741L440.994 193.732L441.606 188.852C441.606 188.852 448.93 182.44 451.064 176.938C452.225 173.975 451.986 167.48 451.986 167.48C453.182 166.97 454.26 166.218 455.151 165.271C456.043 164.324 456.729 163.203 457.166 161.979L458.389 158.011C455.653 156.64 453 155.111 450.443 153.432C447.232 150.849 444.174 148.081 441.284 145.144C441.284 145.144 428.78 138.824 423.89 131.479Z" fill="white" stroke="#263238" stroke-linecap="round" stroke-linejoin="round"/>
<path d="M423.279 153.763C423.279 153.763 421.756 169.303 423.589 172.701C425.423 176.099 430.303 172.701 430.303 172.701" stroke="#263238" stroke-miterlimit="10"/>
<path d="M424.76 179.114C424.76 179.114 432.706 180.637 436.974 175.146" stroke="#263238" stroke-miterlimit="10"/>
<path d="M434.27 157.431C435.283 157.431 436.104 156.406 436.104 155.141C436.104 153.877 435.283 152.852 434.27 152.852C433.258 152.852 432.437 153.877 432.437 155.141C432.437 156.406 433.258 157.431 434.27 157.431Z" fill="#263238"/>
<path d="M417.176 157.431C418.189 157.431 419.01 156.406 419.01 155.141C419.01 153.877 418.189 152.852 417.176 152.852C416.164 152.852 415.343 153.877 415.343 155.141C415.343 156.406 416.164 157.431 417.176 157.431Z" fill="#263238"/>
<path d="M430.914 146.749C430.914 146.749 435.493 144.916 438.238 147.661" stroke="#263238" stroke-miterlimit="10"/>
<path d="M420.533 147.05C420.533 147.05 415.954 144.916 414.12 149.184" stroke="#263238" stroke-miterlimit="10"/>
<path d="M397.731 246.837L401.533 266.988L393.753 296.244" stroke="#263238" stroke-linecap="round" stroke-linejoin="round"/>
<path d="M396.249 238.974L396.881 242.351" stroke="#263238" stroke-linecap="round" stroke-linejoin="round"/>
<path d="M467.557 208.122C467.557 208.122 477.13 212.598 476.601 215.695C476.073 218.793 478.891 287.096 475.565 291.8C472.24 296.503 462.978 294.908 462.978 294.908C462.978 294.908 459.041 282.652 455.022 278.943C451.002 275.234 449.531 276.498 449.531 276.498L452.276 234.965" fill="#651FFF"/>
<path d="M467.557 208.122C467.557 208.122 477.13 212.598 476.601 215.695C476.073 218.793 478.891 287.096 475.565 291.8C472.24 296.503 462.978 294.908 462.978 294.908C462.978 294.908 459.041 282.652 455.022 278.943C451.002 275.234 449.531 276.498 449.531 276.498L452.276 234.965" stroke="#263238" stroke-linecap="round" stroke-linejoin="round"/>
<path d="M378.44 290.93C377.07 292.602 375.435 294.04 373.602 295.188C370.764 296.897 367.065 297.747 369.624 298.886C372.183 300.026 376.161 298.316 378.44 296.897C380.72 295.478 378.44 290.93 378.44 290.93Z" fill="white" stroke="#263238" stroke-linecap="round" stroke-linejoin="round"/>
<path d="M435.462 285.252C441.678 281.46 447.252 275.151 454.99 274.892C462.729 274.633 469.857 280.072 473.276 286.62C474.395 288.764 475.172 291.282 474.467 293.592C473.152 297.943 467.713 299.207 463.206 299.735L438.342 302.688C423.444 304.449 407.759 306.107 393.939 300.264C393.758 301.584 393.172 302.815 392.261 303.786C391.225 304.646 389.391 304.605 388.873 303.393C388.333 303.899 387.638 304.207 386.9 304.267C386.163 304.327 385.427 304.136 384.812 303.724C384.553 303.569 383.227 304.252 381.849 304.014C381.362 303.921 379.663 303.175 379.176 303.061C378.852 303.023 378.538 302.921 378.254 302.761C377.969 302.601 377.719 302.386 377.518 302.129C377.316 301.717 377.23 301.259 377.27 300.803C377.097 297.87 377.377 294.927 378.099 292.079C381.6 280.849 394.136 287.003 400.797 291.416C403.066 292.919 405.459 294.462 408.163 294.721C410.19 294.783 412.212 294.478 414.131 293.82C421.289 291.82 428.842 289.303 435.389 285.356L435.462 285.252Z" fill="white" stroke="#263238" stroke-linecap="round" stroke-linejoin="round"/>
<path d="M393.898 300.233L394.975 296.006" stroke="#263238" stroke-linecap="round" stroke-linejoin="round"/>
<path d="M388.956 302.864C388.956 302.864 389.526 291.209 391.515 288.65" stroke="#263238" stroke-linecap="round" stroke-linejoin="round"/>
<path d="M384.978 303.144C384.978 303.144 384.118 292.919 386.107 288.081" stroke="#263238" stroke-linecap="round" stroke-linejoin="round"/>
<path d="M380.668 303.103C380.668 303.103 379.86 295.281 381.279 289.79" stroke="#263238" stroke-linecap="round" stroke-linejoin="round"/>
<path d="M36.4672 304.294L28.6972 231.453C28.6389 230.914 28.6949 230.369 28.8617 229.853C29.0284 229.337 29.3021 228.862 29.6648 228.459C30.0276 228.057 30.4712 227.735 30.9668 227.515C31.4623 227.295 31.9986 227.183 32.5407 227.184H82.7556C83.635 227.183 84.4885 227.482 85.1745 228.032C85.8604 228.582 86.3376 229.351 86.5267 230.209L102.937 304.294H36.4672Z" fill="#263238" stroke="#263238" stroke-linecap="round" stroke-linejoin="round"/>
<path d="M97.8708 180.761C97.8708 180.761 66.2003 197.607 65.3301 204.289C64.4598 210.971 61.8491 304.18 61.8491 304.18H144.926C144.926 304.18 136.793 267.619 135.923 263.258C135.053 258.896 133.851 251.354 133.851 251.354L161.222 263.786L165.283 236.488C165.283 236.488 150.987 215.902 141.984 204.569C132.981 193.235 121.357 184.522 116.084 183.362C110.81 182.201 97.8708 180.761 97.8708 180.761Z" fill="white" stroke="#263238" stroke-linecap="round" stroke-linejoin="round"/>
<path d="M133.893 251.354L135.457 238.031L139.85 222.491" stroke="#263238" stroke-miterlimit="10"/>
<path d="M135.457 238.031L136.338 224.253" stroke="#263238" stroke-miterlimit="10"/>
<path d="M125.75 257.374C126.495 257.674 127.2 257.974 127.822 258.275" stroke="#263238" stroke-miterlimit="10"/>
<path d="M97.3218 249.179C97.3218 249.179 112.023 252.556 122.186 256.037" stroke="#263238" stroke-miterlimit="10"/>
<path d="M115.214 215.747C115.214 215.747 116.685 238.912 117.286 240.383C117.887 241.854 121.098 240.673 121.098 240.673L119.026 227.205" stroke="#263238" stroke-miterlimit="10"/>
<path d="M89.2515 229.443L91.4581 226.304" stroke="#263238" stroke-miterlimit="10"/>
<path d="M80.3105 242.144L87.0342 232.592" stroke="#263238" stroke-miterlimit="10"/>
<path d="M107.392 174.048C107.392 174.048 98.0678 176.12 96.3584 177.819C94.649 179.518 91.7068 190.313 91.7068 190.313L96.8868 217.622C96.8868 217.622 111.702 204.548 113.732 203.968C115.763 203.387 133.199 213.551 133.199 213.551C133.199 213.551 132.618 199.896 128.257 191.183C123.895 182.471 120.124 178.99 116.063 176.369C113.452 174.787 110.444 173.982 107.392 174.048Z" fill="white" stroke="#263238" stroke-linecap="round" stroke-linejoin="round"/>
<path d="M107.392 155.193C107.392 155.193 105.32 170.298 104.781 175.239C104.242 180.181 101.3 177.85 103.04 183.952C104.781 190.054 114.364 215.032 116.405 212.96C118.446 210.888 124.828 186.242 126.278 184.491C127.728 182.74 130.349 179.311 130.349 179.311L107.392 155.193Z" fill="white" stroke="#263238" stroke-linecap="round" stroke-linejoin="round"/>
<path d="M107.205 156.581C106.812 159.544 105.869 166.61 105.237 171.551L127.428 179.394L125.646 174.4L109.35 157.275L107.205 156.581Z" fill="#263238" stroke="#263238" stroke-linecap="round" stroke-linejoin="round"/>
<path d="M73.4626 196.156C73.4626 196.156 62.4292 202.258 62.1391 205.48C61.849 208.702 41.5124 280.114 43.5118 285.625C45.5113 291.137 55.1358 292.017 55.1358 292.017C55.1358 292.017 64.1386 277.203 69.0803 274.592C71.2455 273.391 73.4882 272.335 75.7936 271.432L86.2468 221.704" fill="white"/>
<path d="M73.4626 196.156C73.4626 196.156 62.4292 202.258 62.1391 205.48C61.849 208.702 41.5124 280.114 43.5118 285.625C45.5113 291.137 55.1358 292.017 55.1358 292.017C55.1358 292.017 64.1386 277.203 69.0803 274.592C71.2455 273.391 73.4882 272.335 75.7936 271.432L86.2468 221.704" stroke="#263238" stroke-linecap="round" stroke-linejoin="round"/>
<path d="M145.216 288.246C146.617 289.955 148.286 291.424 150.158 292.598C153.059 294.348 156.84 295.219 154.229 296.379C151.619 297.539 147.547 295.799 145.216 294.307C142.885 292.815 145.216 288.246 145.216 288.246Z" fill="white" stroke="#263238" stroke-linecap="round" stroke-linejoin="round"/>
<path d="M81.3052 276.612C81.3052 276.612 81.1394 276.394 80.8286 276.032C79.0859 273.93 76.9806 272.159 74.6126 270.8C71.1213 269.06 60.6681 268.728 51.6549 279.233C42.6417 289.738 47.3037 294.918 54.566 296.659C61.8284 298.399 89.1373 299.849 95.8092 301.02C102.481 302.191 114.986 303.092 119.637 301.02C122.764 299.678 125.963 298.512 129.22 297.529C129.22 297.529 130.671 302.18 132.712 302.18C134.752 302.18 134.473 300.44 134.473 300.44C134.473 300.44 135.633 301.611 136.545 301.611C137.298 301.502 138.012 301.202 138.617 300.74C139.07 301.077 139.594 301.304 140.149 301.405C140.705 301.506 141.276 301.477 141.818 301.321C143.558 300.74 143.558 299.86 143.558 299.86C143.558 299.86 145.63 301.611 146.47 299.86C147.309 298.109 145.879 292.307 145.299 288.246C144.719 284.185 141.818 284.175 141.818 284.175L140.927 283.543C140.481 283.228 139.974 283.011 139.438 282.908C138.902 282.804 138.35 282.816 137.819 282.942L136.327 283.305C136.327 283.305 133.426 282.724 131.966 283.305C130.505 283.885 118.321 291.147 116.571 292.017C114.82 292.888 110.178 292.017 104.957 289.945C99.7356 287.873 83.9159 280.984 81.3052 276.612Z" fill="white" stroke="#263238" stroke-linecap="round" stroke-linejoin="round"/>
<path d="M129.241 297.539L128.319 293.437" stroke="#263238" stroke-linecap="round" stroke-linejoin="round"/>
<path d="M59.8082 287.376C66.2003 278.684 81.3052 276.612 81.3052 276.612C81.3052 276.612 81.1394 276.394 80.8286 276.032C79.0859 273.93 76.9806 272.159 74.6126 270.8C71.1213 269.06 60.6681 268.728 51.6549 279.233C42.6417 289.738 47.3037 294.918 54.566 296.659C55.3845 296.855 56.4826 297.052 57.7673 297.239C56.9799 294.659 56.9799 291.24 59.8082 287.376Z" fill="white" stroke="#263238" stroke-linecap="round" stroke-linejoin="round"/>
<path d="M134.473 300.44C134.473 300.44 133.892 288.536 131.852 285.936" stroke="#263238" stroke-linecap="round" stroke-linejoin="round"/>
<path d="M138.534 300.741C138.534 300.741 139.414 290.277 137.374 285.335" stroke="#263238" stroke-linecap="round" stroke-linejoin="round"/>
<path d="M143.476 299.86C143.615 295.57 143.226 291.28 142.315 287.086" stroke="#263238" stroke-linecap="round" stroke-linejoin="round"/>
<path d="M165.294 236.477C165.294 236.477 162.186 232.395 160.197 234.405C158.208 236.415 155.504 253.778 155.504 259.083C155.504 264.387 154.685 264.18 161.005 265.402C167.324 266.625 169.573 267.039 172.028 265.817C174.483 264.594 170.992 256.835 169.168 250.515C167.345 244.195 165.294 236.477 165.294 236.477Z" fill="white" stroke="#263238" stroke-linecap="round" stroke-linejoin="round"/>
<path d="M173.375 148.303C174.227 148.121 175.111 148.16 175.944 148.417L173.375 148.303Z" fill="white"/>
<path d="M173.375 148.303C174.227 148.121 175.111 148.16 175.944 148.417" stroke="#263238" stroke-linecap="round" stroke-linejoin="round"/>
<path d="M160.88 165.977C161.634 165.296 162.327 164.551 162.952 163.75C165.263 160.86 167.169 152.634 171.054 149.464" fill="white"/>
<path d="M160.88 165.977C161.634 165.296 162.327 164.551 162.952 163.75C165.263 160.86 167.169 152.634 171.054 149.464" stroke="#263238" stroke-linecap="round" stroke-linejoin="round"/>
<path d="M158.373 164.589C158.373 164.589 161.481 162.984 162.352 157.337L158.373 164.589Z" fill="white"/>
<path d="M158.373 164.589C158.373 164.589 161.481 162.984 162.352 157.337" stroke="#263238" stroke-linecap="round" stroke-linejoin="round"/>
<path d="M170.391 193.028L168.143 206.889C168.143 206.889 186.915 246.06 187.122 253.406C187.329 260.751 185.05 265.03 176.918 265.838C168.785 266.646 166.723 264.802 164.683 256.659C162.642 248.516 161.212 207.697 161.212 207.697C161.212 207.697 157.337 202.393 156.312 200.559C155.509 198.896 155.027 197.097 154.892 195.255C154.892 194.644 153.463 177.508 153.463 177.508L168.143 177.301L170.391 193.028Z" fill="white" stroke="#263238" stroke-linecap="round" stroke-linejoin="round"/>
<path d="M169.251 191.287L161.73 192.396C161.503 192.444 161.269 192.446 161.041 192.403C160.814 192.359 160.597 192.271 160.404 192.143C160.211 192.014 160.046 191.849 159.917 191.655C159.789 191.462 159.701 191.246 159.658 191.018L159.285 189.132C159.237 188.906 159.234 188.672 159.278 188.444C159.321 188.216 159.41 187.999 159.538 187.806C159.666 187.613 159.832 187.448 160.025 187.32C160.218 187.192 160.435 187.103 160.663 187.06L168.184 185.962C168.41 185.912 168.644 185.908 168.872 185.951C169.099 185.993 169.316 186.08 169.509 186.208C169.703 186.335 169.868 186.5 169.996 186.693C170.125 186.886 170.213 187.102 170.256 187.33L170.629 189.215C170.676 189.442 170.677 189.675 170.633 189.903C170.589 190.13 170.5 190.346 170.372 190.539C170.244 190.731 170.079 190.897 169.887 191.025C169.694 191.154 169.478 191.243 169.251 191.287Z" fill="white" stroke="#263238" stroke-linecap="round" stroke-linejoin="round"/>
<path d="M170.215 195.244L164.755 196.053C164.589 196.085 164.418 196.084 164.252 196.05C164.086 196.015 163.929 195.947 163.79 195.851C163.65 195.754 163.532 195.63 163.442 195.487C163.351 195.344 163.291 195.184 163.263 195.017L162.994 193.649C162.963 193.484 162.965 193.313 163 193.149C163.036 192.984 163.104 192.828 163.2 192.69C163.297 192.552 163.42 192.435 163.562 192.345C163.705 192.255 163.864 192.195 164.03 192.168L169.49 191.359C169.825 191.299 170.17 191.374 170.45 191.569C170.73 191.763 170.921 192.06 170.981 192.395L171.251 193.763C171.282 193.928 171.28 194.099 171.244 194.263C171.209 194.428 171.141 194.584 171.045 194.722C170.948 194.86 170.825 194.977 170.682 195.067C170.54 195.157 170.381 195.217 170.215 195.244Z" fill="white" stroke="#263238" stroke-linecap="round" stroke-linejoin="round"/>
<path d="M169.376 179.964L161.419 181.134C160.94 181.229 160.442 181.129 160.036 180.857C159.63 180.585 159.349 180.163 159.254 179.684L158.871 177.684C158.824 177.448 158.824 177.204 158.872 176.967C158.92 176.731 159.014 176.506 159.148 176.306C159.283 176.106 159.456 175.934 159.657 175.801C159.859 175.668 160.084 175.575 160.321 175.529L168.277 174.359C168.755 174.267 169.25 174.369 169.654 174.64C170.057 174.912 170.337 175.332 170.432 175.809L170.826 177.809C170.873 178.045 170.872 178.289 170.824 178.526C170.777 178.762 170.683 178.987 170.548 179.187C170.413 179.387 170.24 179.559 170.039 179.692C169.838 179.825 169.613 179.918 169.376 179.964Z" fill="white" stroke="#263238" stroke-linecap="round" stroke-linejoin="round"/>
<path d="M170.184 185.879L162.227 187.05C161.99 187.097 161.747 187.096 161.51 187.048C161.274 187.001 161.049 186.907 160.849 186.772C160.648 186.637 160.477 186.464 160.344 186.263C160.21 186.062 160.118 185.836 160.072 185.6L159.679 183.6C159.632 183.363 159.633 183.12 159.68 182.883C159.728 182.647 159.822 182.422 159.957 182.221C160.091 182.021 160.264 181.85 160.465 181.716C160.667 181.583 160.892 181.491 161.129 181.445L169.086 180.274C169.565 180.183 170.061 180.284 170.466 180.555C170.871 180.827 171.153 181.247 171.251 181.725L171.634 183.724C171.682 183.961 171.683 184.205 171.636 184.442C171.589 184.679 171.495 184.905 171.36 185.105C171.225 185.306 171.051 185.477 170.849 185.61C170.648 185.743 170.421 185.835 170.184 185.879Z" fill="white" stroke="#263238" stroke-linecap="round" stroke-linejoin="round"/>
<path d="M104.916 147.195C104.916 147.195 102.719 125.149 100.067 117.648C97.415 110.148 107.122 101.777 130.049 102.222C152.976 102.668 161.357 112.8 161.792 117.648C162.227 122.497 156.498 126.029 156.498 126.029L154.302 132.245L134.017 127.397C134.017 127.397 134.017 132.681 132.256 134.887C130.494 137.094 120.352 140.616 120.352 140.616C120.352 140.616 118.145 148.552 114.623 152.52C111.101 156.488 105.796 156.053 105.361 153.411C105.07 151.352 104.921 149.275 104.916 147.195Z" fill="#263238" stroke="#263238" stroke-linecap="round" stroke-linejoin="round"/>
<path d="M110.21 151.163C110.21 151.163 111.536 142.346 104.481 142.346C97.4255 142.346 99.1867 151.163 101.373 155.566C103.559 159.969 106.221 160.86 106.221 160.86C106.221 160.86 119.886 178.938 124.734 181.58C129.583 184.221 132.235 185.993 135.757 184.221C139.28 182.45 149.868 169.241 151.629 162.186C152.661 158.296 153.255 154.304 153.401 150.282C153.401 150.282 157.368 141.901 157.368 137.933C157.368 133.965 156.477 126.029 156.477 126.029C156.477 126.029 137.084 118.974 131.354 120.3C125.625 121.626 122.973 121.181 125.615 123.408C128.257 125.636 129.583 132.225 127.822 133.105C126.061 133.986 115.483 133.986 115.483 137.954C115.483 141.922 116.799 144.17 115.037 146.335C113.549 148.061 111.936 149.675 110.21 151.163Z" fill="white" stroke="#263238" stroke-linecap="round" stroke-linejoin="round"/>
<path d="M139.031 165.304C139.031 165.304 145.133 166.174 146.283 164.724C147.433 163.274 147.164 152.23 147.164 152.23L151.515 146.128C151.515 146.128 154.136 144.387 155.296 146.128" stroke="#263238" stroke-miterlimit="10"/>
<path d="M137 174.597L141.072 173.147" stroke="#263238" stroke-miterlimit="10"/>
<path d="M135.509 150.137C135.094 151.691 134.017 152.769 133.095 152.52C132.173 152.271 131.779 150.821 132.193 149.257C132.608 147.692 133.685 146.625 134.597 146.863C135.509 147.102 135.923 148.573 135.509 150.137Z" fill="#263238"/>
<path d="M152.023 152.675C151.608 154.24 150.531 155.307 149.619 155.058C148.707 154.81 148.293 153.359 148.707 151.795C149.122 150.23 150.199 149.163 151.111 149.402C152.023 149.64 152.437 151.111 152.023 152.675Z" fill="#263238"/>
<path d="M131.479 142.357C131.479 142.357 135.84 139.446 142.232 143.227" stroke="#263238" stroke-miterlimit="10"/>
<path d="M140.502 169.904L145.195 200.404L161.326 199.233L162.206 168.433C162.206 168.433 155.462 166.112 140.502 169.904Z" fill="white" stroke="#263238" stroke-linecap="round" stroke-linejoin="round"/>
<path d="M359.927 420.233L372.307 472.654C372.401 473.024 372.408 473.41 372.329 473.783C372.25 474.155 372.087 474.505 371.852 474.805C371.617 475.105 371.317 475.348 370.974 475.513C370.63 475.679 370.254 475.765 369.873 475.762H354.25V479.668H373.996C374.706 479.669 375.406 479.507 376.043 479.195C376.681 478.882 377.238 478.428 377.672 477.867C378.106 477.305 378.406 476.652 378.548 475.957C378.691 475.261 378.671 474.543 378.492 473.856L362.952 414.545L359.927 420.233Z" fill="white" stroke="#263238" stroke-linecap="round" stroke-linejoin="round"/>
<path d="M372.47 363.387L365.617 362.198L348.826 458.995L355.679 460.184L372.47 363.387Z" fill="#263238" stroke="#263238" stroke-width="0.994636" stroke-linecap="round" stroke-linejoin="round"/>
<path d="M331.406 476.943H268.22V479.678H331.406V476.943Z" fill="white" stroke="#263238" stroke-linecap="round" stroke-linejoin="round"/>
<path d="M417.674 300.802H293.924V304.346H417.674V300.802Z" fill="#263238" stroke="#263238" stroke-linecap="round" stroke-linejoin="round"/>
<path d="M417.663 300.802H374.224V304.346H417.663V300.802Z" fill="white" stroke="#263238" stroke-linecap="round" stroke-linejoin="round"/>
<path d="M375.695 300.803H295.343L287.531 247.366C287.423 246.795 287.443 246.207 287.592 245.645C287.741 245.083 288.013 244.562 288.39 244.12C288.767 243.678 289.238 243.325 289.769 243.089C290.3 242.853 290.877 242.739 291.458 242.755H362.6C363.877 242.796 365.1 243.277 366.061 244.117C367.023 244.958 367.663 246.106 367.873 247.366L375.695 300.803Z" fill="white" stroke="#263238" stroke-linecap="round" stroke-linejoin="round"/>
<path d="M374.151 300.803H293.799L285.988 247.366C285.879 246.794 285.9 246.205 286.049 245.643C286.198 245.08 286.472 244.558 286.85 244.116C287.228 243.673 287.7 243.321 288.232 243.086C288.765 242.85 289.343 242.737 289.925 242.756H361.056C362.334 242.795 363.559 243.276 364.522 244.117C365.485 244.957 366.128 246.105 366.34 247.366L374.151 300.803Z" fill="white" stroke="#263238" stroke-linecap="round" stroke-linejoin="round"/>
<path d="M124.268 304.346H250.743V300.73H124.268V304.346Z" fill="#263238" stroke="#263238" stroke-linecap="round" stroke-linejoin="round"/>
<path d="M124.279 304.346H168.671V300.73H124.279V304.346Z" fill="#651FFF" stroke="#263238" stroke-linecap="round" stroke-linejoin="round"/>
<path d="M167.179 300.73H249.293L257.28 246.112C257.39 245.528 257.368 244.927 257.216 244.353C257.063 243.779 256.784 243.246 256.398 242.794C256.013 242.342 255.531 241.982 254.988 241.74C254.445 241.499 253.855 241.382 253.261 241.399H180.565C179.258 241.438 178.006 241.93 177.022 242.789C176.038 243.649 175.382 244.823 175.167 246.112L167.179 300.73Z" fill="#651FFF" stroke="#263238" stroke-linecap="round" stroke-linejoin="round"/>
<path d="M168.754 300.73H250.868L258.855 246.112C258.966 245.529 258.946 244.929 258.795 244.355C258.645 243.781 258.367 243.248 257.984 242.795C257.601 242.342 257.121 241.98 256.579 241.737C256.038 241.494 255.449 241.374 254.856 241.388H182.139C180.833 241.428 179.581 241.919 178.597 242.779C177.613 243.638 176.957 244.813 176.742 246.102L168.754 300.73Z" fill="#651FFF" stroke="#263238" stroke-linecap="round" stroke-linejoin="round"/>
<path d="M212.225 269.36C212.462 267.951 213.178 266.666 214.251 265.722C215.325 264.779 216.691 264.234 218.12 264.18C218.773 264.158 219.423 264.284 220.02 264.549C220.618 264.813 221.148 265.209 221.572 265.707C221.995 266.205 222.3 266.792 222.465 267.425C222.63 268.057 222.649 268.719 222.523 269.36C222.285 270.771 221.568 272.057 220.492 273.001C219.416 273.945 218.048 274.488 216.617 274.54C215.966 274.558 215.318 274.43 214.723 274.164C214.127 273.898 213.599 273.502 213.177 273.005C212.756 272.508 212.451 271.922 212.286 271.291C212.121 270.66 212.1 270 212.225 269.36Z" fill="#263238" stroke="#263238" stroke-linecap="round" stroke-linejoin="round"/>
<path d="M25.8999 479.678H509.422" stroke="#263238" stroke-linecap="round" stroke-linejoin="round"/>
<path d="M499.072 304.346H279.316" stroke="#263238" stroke-linecap="round" stroke-linejoin="round"/>
<path d="M266.231 304.346H23.4551" stroke="#263238" stroke-linecap="round" stroke-linejoin="round"/>
<path d="M196.747 317.016C196.747 317.016 194.892 299.197 185.579 293.613C176.265 288.029 181.062 303.185 181.062 303.973C181.062 304.76 167.231 289.344 155.524 297.85C143.817 306.356 154.727 324.185 154.727 324.185C154.727 324.185 140.637 319.399 140.896 324.455C141.155 329.51 154.198 333.779 154.198 333.779C154.198 333.779 130.526 336.172 139.042 346.811C147.557 357.451 170.691 349.733 170.691 349.733C170.691 349.733 164.299 356.653 168.827 357.451C173.354 358.249 190.583 344.688 192.23 341.227C193.877 337.767 202.869 327.376 196.747 317.016Z" fill="#263238" stroke="#263238" stroke-linecap="round" stroke-linejoin="round"/>
<path d="M249.427 349.66C249.427 349.66 258.078 349.205 262.636 341.921C267.195 334.638 265.361 329.624 258.492 326.899C251.623 324.175 242.103 325.532 242.103 325.532C242.103 325.532 227.568 307.319 207.075 311.836C186.583 316.353 183.848 332.328 185.216 340.523L190.686 373.312C190.686 373.312 207.531 376.047 212.09 371.489C216.648 366.93 225.288 350.541 234.395 348.272C243.501 346.003 249.427 349.66 249.427 349.66Z" fill="#263238" stroke="#263238" stroke-linecap="round" stroke-linejoin="round"/>
<path d="M252.463 365.366C251.903 369.458 248.971 375.208 246.153 374.825C243.336 374.442 241.491 370.826 242.009 366.734C242.527 362.642 245.522 362.072 248.339 362.455C251.157 362.838 253.012 361.284 252.463 365.366Z" stroke="#263238" stroke-linecap="round" stroke-linejoin="round"/>
<path d="M203.885 360.59C203.885 360.59 207.532 361.958 213.002 357.865C218.472 353.773 218.461 343.745 230.303 341.466C242.144 339.186 249.883 344.657 250.339 347.847C250.795 351.038 248.972 357.41 248.972 363.781C248.972 370.152 250.339 373.343 251.707 374.711C253.074 376.078 254.887 375.167 252.162 377.902C249.628 380.138 246.88 382.119 243.957 383.817C243.957 383.817 236.218 398.394 233.038 401.118C229.857 403.843 222.108 402.486 219.373 401.118C216.638 399.751 210.722 396.57 210.722 396.57L207.076 409.324L185.216 391.608L190.686 373.395C190.686 373.395 201.616 370.608 203.885 360.59Z" fill="white" stroke="#263238" stroke-linecap="round" stroke-linejoin="round"/>
<path d="M210.722 396.57L204.859 389.909L208.018 403.822L210.722 396.57Z" fill="#263238" stroke="#263238" stroke-linecap="round" stroke-linejoin="round"/>
<path d="M245.408 366.651C245.252 368.402 244.372 369.759 243.398 369.666C242.424 369.572 241.813 368.091 241.968 366.33C242.124 364.568 243.004 363.222 243.978 363.315C244.952 363.408 245.532 364.89 245.408 366.651Z" fill="#263238"/>
<path d="M236.705 362.455L205.521 360.373" stroke="#263238" stroke-linecap="round" stroke-linejoin="round"/>
<path d="M247.013 366.754H249.541" stroke="#263238" stroke-linecap="round" stroke-linejoin="round"/>
<path d="M240.103 355.586C241.198 354.995 242.448 354.755 243.684 354.897C244.92 355.04 246.082 355.559 247.013 356.384" stroke="#263238" stroke-linecap="round" stroke-linejoin="round"/>
<path d="M240.103 389.101C240.103 389.101 236.643 389.101 234.25 385.112" stroke="#263238" stroke-linecap="round" stroke-linejoin="round"/>
<path d="M210.308 421.144L214.452 479.937H124.6C124.6 479.937 138.637 435.182 143.03 425.827C147.423 416.472 152.976 412.359 152.976 412.359C152.976 412.359 164.372 402.123 179.912 404.164C195.452 406.205 210.308 421.144 210.308 421.144Z" fill="#651FFF" stroke="#263238" stroke-linecap="round" stroke-linejoin="round"/>
<path d="M206.62 364.237C206.62 364.237 204.796 355.131 198.425 356.498C192.053 357.866 195.234 371.976 199.337 376.079C203.439 380.181 206.164 375.623 206.164 375.623" fill="white"/>
<path d="M206.62 364.237C206.62 364.237 204.796 355.131 198.425 356.498C192.053 357.866 195.234 371.976 199.337 376.079C203.439 380.181 206.164 375.623 206.164 375.623" stroke="#263238" stroke-linecap="round" stroke-linejoin="round"/>
<path d="M212.059 424.946C212.059 424.946 215.571 418.803 212.649 413.83C209.728 408.857 200.984 398.912 188.956 389.536C176.928 380.16 161.16 368.184 158.829 374.618C156.498 381.051 154.685 393.628 154.685 393.628C154.685 393.628 144.449 395.379 143.289 398.601C142.129 401.823 140.948 417.912 142.709 419.953C144.47 421.994 145.63 419.663 149.433 419.663C153.235 419.663 176.369 412.059 185.123 412.639C193.877 413.219 195.358 415.861 202.082 419.373C208.806 422.885 212.059 424.946 212.059 424.946Z" fill="#651FFF" stroke="#263238" stroke-linecap="round" stroke-linejoin="round"/>
<path d="M206.05 414.338C207.71 415.552 209.234 416.942 210.598 418.482" stroke="#263238" stroke-linecap="round" stroke-linejoin="round"/>
<path d="M161.709 399.575C168.402 398.187 176.524 397.451 182.222 400.082C189.454 403.475 196.386 407.475 202.942 412.038" stroke="#263238" stroke-linecap="round" stroke-linejoin="round"/>
<path d="M149.754 403.004C153.088 401.763 156.5 400.742 159.969 399.948" stroke="#263238" stroke-linecap="round" stroke-linejoin="round"/>
<path d="M158.508 393.68C158.508 393.68 165.822 390.758 175.768 393.97" stroke="#263238" stroke-linecap="round" stroke-linejoin="round"/>
<path d="M169.645 423.486C171.986 418.513 179.59 407.397 191.297 413.25C203.004 419.104 205.915 433.141 211.188 450.401C216.462 467.661 221.424 479.938 221.424 479.938H177.84L167.013 436.353" fill="#651FFF"/>
<path d="M169.645 423.486C171.986 418.513 179.59 407.397 191.297 413.25C203.004 419.104 205.915 433.141 211.188 450.401C216.462 467.661 221.424 479.938 221.424 479.938H177.84L167.013 436.353" stroke="#263238" stroke-linecap="round" stroke-linejoin="round"/>
<path d="M263.496 479.854L268.334 475.71C268.334 475.71 274.074 477.088 283.418 474.208C292.763 471.328 295.85 468.552 295.85 468.552C298.771 469.928 301.592 471.507 304.294 473.276C308.583 476.125 311.691 477.223 315.835 476.094C319.979 474.964 314.706 473.825 310.116 470.593C305.527 467.36 299.994 462.895 299.994 462.895C299.994 462.895 308.666 467.039 311.691 468.179C314.716 469.318 317.72 471.193 320.362 470.064C323.004 468.935 321.864 467.795 315.078 464.408C308.862 461.3 301.88 455.353 298.503 455.353C295.125 455.353 279.647 461.766 279.647 461.766L249.386 479.865L263.496 479.854Z" fill="white" stroke="#263238" stroke-linecap="round" stroke-linejoin="round"/>
<path d="M274.074 472.551C276.361 473.284 278.79 473.462 281.16 473.069C284.548 472.312 289.075 471.556 289.075 471.556C289.075 471.556 298.119 471.939 301.144 471.556C304.17 471.173 303.403 469.298 298.503 467.412C293.602 465.527 275.13 464.397 274.747 465.527C274.39 467.853 274.165 470.198 274.074 472.551Z" fill="#263238" stroke="#263238" stroke-linecap="round" stroke-linejoin="round"/>
<path d="M301.611 462.481C301.611 462.481 308.78 465.164 310.127 466.055C311.473 466.946 314.157 467.63 313.027 469.163C311.898 470.696 308.334 469.391 305.869 468.935C303.932 468.483 302.055 467.809 300.274 466.925L301.611 462.481Z" fill="white" stroke="#263238" stroke-linecap="round" stroke-linejoin="round"/>
<path d="M283.035 458.451C283.035 458.451 295.788 459.124 298.699 460.015C301.611 460.906 303.879 466.956 304.304 468.749C304.729 470.541 306.314 472.779 304.967 472.996C303.62 473.214 298.699 467.63 296.679 466.511C294.659 465.392 286.599 461.579 283.688 460.461C280.777 459.342 281.46 458.223 283.035 458.451Z" fill="white" stroke="#263238" stroke-linecap="round" stroke-linejoin="round"/>
<path d="M245.604 477.648C245.604 477.648 274.851 456.928 277.979 456.928C281.108 456.928 295.136 463.144 298.254 464.729C301.372 466.314 305.278 474.871 305.278 474.871C305.278 474.871 304.491 476.819 301.766 475.265C299.041 473.711 295.913 468.635 295.913 468.635L280.373 468.034C280.373 468.034 276.446 471.732 274.105 472.509C271.531 473.149 268.913 473.6 266.273 473.856L261.238 478.383L245.604 477.648Z" fill="white" stroke="#263238" stroke-linecap="round" stroke-linejoin="round"/>
<path d="M259.518 467.63L266.242 479.937H237.14L259.518 467.63Z" fill="#651FFF" stroke="#263238" stroke-linecap="round" stroke-linejoin="round"/>
<path d="M247.5 361.865C247.5 361.865 238.746 358.653 237.575 360.704C236.405 362.755 235.244 370.329 239.917 373.54C244.589 376.752 247.013 366.754 247.013 366.754" stroke="#263238" stroke-linecap="round" stroke-linejoin="round"/>
<path d="M273.504 160.58C294.674 160.58 311.836 143.418 311.836 122.248C311.836 101.078 294.674 83.916 273.504 83.916C252.334 83.916 235.172 101.078 235.172 122.248C235.172 143.418 252.334 160.58 273.504 160.58Z" fill="#263238" stroke="#263238" stroke-linecap="round" stroke-linejoin="round"/>
<path d="M273.504 156.405C292.368 156.405 307.661 141.112 307.661 122.248C307.661 103.384 292.368 88.0911 273.504 88.0911C254.639 88.0911 239.347 103.384 239.347 122.248C239.347 141.112 254.639 156.405 273.504 156.405Z" fill="white" stroke="#263238" stroke-linecap="round" stroke-linejoin="round"/>
<path d="M264.356 131.841L273.504 122.248L297.321 139.601" stroke="#263238" stroke-width="3" stroke-linecap="round" stroke-linejoin="round"/>
</svg>
